<?xml version="1.0" encoding="utf-8" ?><svg xmlns="http://www.w3.org/2000/svg" xmlns:xlink="http://www.w3.org/1999/xlink" width="1024" height="1024" viewBox="0 0 1024 1024"><path fill="#0F0C0D" d="M0 0L1024 0L1024 1024L0 1024L0 0Z"/><path fill="#FEFEFE" d="M540.559 685.853C571.014 682.67 598.294 704.75 601.527 735.199C604.761 765.648 582.727 792.965 552.283 796.25C521.768 799.542 494.372 777.445 491.131 746.924C487.89 716.403 510.033 689.044 540.559 685.853Z"/><path fill="#0F0C0D" d="M545.944 705.192C565.722 705.003 581.917 720.867 582.138 740.645C582.359 760.423 566.522 776.645 546.744 776.898C526.921 777.151 510.654 761.27 510.432 741.446C510.211 721.622 526.119 705.381 545.944 705.192Z"/><path fill="#FEFEFE" d="M331.198 686.006C361.665 682.144 389.474 703.766 393.241 734.246C397.007 764.726 375.297 792.467 344.806 796.137C314.45 799.791 286.858 778.198 283.109 747.854C279.359 717.509 300.865 689.85 331.198 686.006Z"/><path fill="#0F0C0D" d="M333.104 705.633C352.748 702.791 370.967 716.439 373.761 736.09C376.556 755.741 362.864 773.927 343.206 776.674C323.615 779.412 305.505 765.776 302.72 746.192C299.935 726.608 313.526 708.465 333.104 705.633Z"/><path fill="#8E432E" d="M501.134 140.126L501.986 140.933C484.527 163.104 468.339 186.697 452.073 209.762C437.84 229.944 425.083 250.613 408.551 269.084C390.634 289.102 371.5 307.69 353.269 327.408C347.437 333.723 340.163 341.982 333.308 346.982L354.961 523.268C348.031 524.007 341.121 524.927 334.239 526.028C332.112 461.454 326.986 395.37 323.437 330.758C355.42 299.387 385.862 264.597 417.105 232.342C428.716 220.356 439.512 206.506 450.905 194.154C467.447 176.22 485.343 158.684 501.134 140.126Z"/><path fill="#8E432E" d="M504.702 131.779C504.742 132.379 504.815 132.934 504.886 133.529C501.946 136.053 491.485 147.577 488.164 150.979C474.431 164.854 460.848 178.878 447.418 193.046C430.919 210.382 413.826 226.301 397.23 243.319L346.917 293.917C338.029 302.699 327.212 313.82 317.944 321.936L320.38 527.841C314.728 528.536 307.362 529.697 301.879 530.916C302.246 479.657 302.936 428.4 303.947 377.149C304.362 354.495 305.2 331.702 305.143 309.056C311.521 302.455 322.948 292.696 329.877 286.643L368.785 252.519L504.702 131.779Z"/><path fill="#FEFEFE" d="M728.481 681.925C729.742 683.253 730.142 785.549 730.456 795.422L710.941 795.432C711.062 775.014 711.022 754.597 710.821 734.18C699.461 746.203 685.84 765.089 674.6 778.436C662.35 763.494 649.989 748.642 637.518 733.884L637.31 777.125L637.302 795.211C631.061 795.442 624.25 795.323 617.963 795.317C617.942 757.71 619.266 719.643 619.445 681.904C624.744 688.052 630.464 696.183 635.69 702.713C648.592 718.834 661.18 735.126 674.83 750.643C679.968 744.419 685.489 737.026 690.616 730.579C703.52 714.583 716.144 698.362 728.481 681.925Z"/><path fill="#FEFEFE" d="M795.271 682.819C797.582 685.052 844.766 786.051 849.063 795.48C842.21 795.526 835.357 795.452 828.507 795.258C825.859 789.448 823.436 784.194 820.477 778.536L795.25 778.512L769.56 778.475L761.732 795.247C754.99 795.31 748.247 795.287 741.505 795.178C750.318 778.151 759.07 758.904 767.338 741.463L795.271 682.819Z"/><path fill="#0F0C0D" d="M795.157 723.776C796.599 725.061 810.367 756.4 812.195 760.713C806.589 760.784 800.982 760.791 795.375 760.732L778.559 760.74C783.572 748.434 789.793 736.078 795.157 723.776Z"/><path fill="#FEFEFE" d="M566.689 815.064C588.631 811.449 609.333 826.356 612.86 848.313C616.387 870.27 601.397 890.911 579.426 894.35C557.58 897.77 537.081 882.882 533.573 861.05C530.066 839.218 544.871 818.659 566.689 815.064Z"/><path fill="#0F0C0D" d="M570.36 817.19C578.92 816.767 585.979 818.437 593.004 823.58C600.842 829.343 606.015 838.033 607.345 847.671C610.473 869.22 599.375 888.693 576.943 891.974C573.569 892.064 570.074 892.195 566.76 891.543C527.268 883.782 529.78 820.929 570.36 817.19Z"/><path fill="#FEFEFE" d="M473.787 814.656C495.854 812.576 515.431 828.773 517.521 850.839C519.61 872.905 503.422 892.489 481.357 894.588C459.279 896.688 439.68 880.488 437.589 858.409C435.498 836.33 451.707 816.738 473.787 814.656Z"/><path fill="#0F0C0D" d="M474.304 817.195C518.452 812.478 528.045 884.883 481.619 891.894C432.623 896.109 430.255 821.28 474.304 817.195Z"/><path fill="#9A4C30" d="M451.863 476.605C452.565 475.969 456.215 471.929 456.292 474.792C454.293 477.638 451.172 482.502 449.048 485.086L448.421 483.984C447.056 485.936 445.082 488.187 443.565 490.081L442.069 489.66C437.992 494.359 433.799 498.895 429.676 503.542C403.741 532.767 379.818 563.656 352.74 591.888C343.531 593.115 332.094 596.019 322.755 597.745L254.143 609.992C241.008 612.213 228.063 614.609 214.801 616.121C219.965 610.983 231.772 600.399 237.421 596.116C239.219 594.753 259.383 590.606 263.238 589.696L319.789 576.243C323.779 575.317 341.584 571.961 343.757 570.356C357.205 559.603 370.108 547.172 382.806 535.371C404.778 514.95 429.667 496.43 451.863 476.605Z"/><path fill="#39110B" d="M451.863 476.605C452.565 475.969 456.215 471.929 456.292 474.792C454.293 477.638 451.172 482.502 449.048 485.086L448.421 483.984C447.056 485.936 445.082 488.187 443.565 490.081L442.069 489.66C443.012 488.355 444.022 487.1 445.097 485.901C446.958 483.817 451.716 479.008 451.863 476.605Z"/><path fill="#863D29" d="M456.292 474.792C454.293 477.638 451.172 482.502 449.048 485.086L448.421 483.984C451.083 479.797 452.694 478.095 456.292 474.792Z"/><path fill="#8E432E" d="M523.162 257.146C537.129 268.042 550.147 279.485 563.14 291.524C572.885 300.553 586.846 312.179 595.526 321.881C596.218 339.626 596.368 357.387 595.977 375.141L597.516 375.272C597.789 366.64 598.986 357.554 599.543 348.875C600.033 341.234 600.049 333.853 600.327 326.23C604.156 329.831 608.147 333.496 611.915 337.142C611.025 343.54 611.365 352.066 610.663 359.182C607.786 388.37 607.126 418.019 604.466 447.189C603.811 454.384 602.502 474.66 601.062 481.125C600.73 484.626 600.433 488.918 599.93 492.333C599.936 497.152 598.903 505.139 598.359 510.104C597.318 519.057 596.415 528.027 595.65 537.008L592.082 533.317C590.994 507.851 589.212 482.409 588.783 456.895C588.652 449.134 588.577 441.253 588.126 433.518C586.546 407.132 583.327 380.395 581.679 353.974C581.141 345.347 580.182 336.278 579.973 327.688L579.491 320.358C569.941 305.597 553.07 290.918 541.455 277.27C535.43 270.191 529.101 264.89 523.162 257.146Z"/><path fill="#9A4C30" d="M579.973 327.688C586.829 329.826 587.434 351.816 587.748 358.367C588.439 372.822 589.619 387.784 590.454 402.235C590.719 406.82 588.243 418.633 589.285 421.142C592.779 420.426 599.103 409.486 599.949 405.918C600.167 404.999 602.121 399.099 602.347 398.784C603.79 403.345 594.102 420.515 588.459 422.663C588.444 428.15 588.92 428.482 589.358 433.188L588.126 433.518C586.546 407.132 583.327 380.395 581.679 353.974C581.141 345.347 580.182 336.278 579.973 327.688Z"/><path fill="#9A4C30" d="M599.93 492.333C599.364 492.271 599.464 492.144 598.863 491.589C597.468 483.645 590.586 437.213 594.071 433.581C595.454 435.56 596.322 475.315 601.062 481.125C600.73 484.626 600.433 488.918 599.93 492.333Z"/><path fill="#39110B" d="M595.977 375.141L597.516 375.272C597.49 376.358 596.879 384.675 596.585 385.074C596.535 385.077 596.485 385.08 596.435 385.083C595.85 384.31 595.893 376.517 595.977 375.141Z"/><path fill="#FEFEFE" d="M629.793 817.441C628.595 817.537 628.327 817.495 627.424 816.781C628.316 816.142 633.392 816.764 634.54 816.933C653.543 817.189 670.721 814.026 685.485 828.921C692.22 835.716 695.636 845.303 695.523 854.823C695.393 864.558 691.347 873.831 684.299 880.546C668.516 895.671 647.722 891.54 627.302 892.086C629.085 891.033 631.166 889.89 632.794 888.652C633.594 883.323 633.445 877.194 633.429 871.77C633.381 855.583 633.76 839.349 633.316 823.174C633.241 820.427 631.906 818.928 629.793 817.441Z"/><path fill="#9E9998" d="M629.793 817.441C628.595 817.537 628.327 817.495 627.424 816.781C628.316 816.142 633.392 816.764 634.54 816.933C632.906 817.045 631.312 816.888 629.793 817.441Z"/><path fill="#0F0C0D" d="M639.689 818.009C645.141 817.962 650.512 817.918 655.964 818.072C687.799 818.969 698.573 859.042 678.488 880.668C664.795 892.388 657.194 890.708 639.931 890.475L639.689 818.009Z"/><defs><linearGradient id="gradient_0" gradientUnits="userSpaceOnUse" x1="680.98608" y1="453.6579" x2="700.18604" y2="456.04422"><stop offset="0" stop-color="#C0672B"/><stop offset="1" stop-color="#F3B26D"/></linearGradient></defs><path fill="url(#gradient_0)" d="M668.115 333.08C669.412 333.796 674.081 336.411 674.91 337.171C676.941 338.085 682.367 341.13 684.171 342.449C687.081 344.155 692.482 347.55 695.326 348.884C696.428 349.561 699.63 351.426 700.441 352.155C701.046 352.479 703.884 353.948 703.861 354.311C703.202 364.621 701.552 381.553 700.942 391.257C701.076 395.547 700.226 407.363 699.522 411.52C699.658 428.721 697.022 456.22 695.82 473.99L692.862 516.114C692.369 522.806 691.895 532.245 691.035 538.731C690.864 543.139 690.239 548.415 689.988 553.013L679.409 557.388L675.278 559.334C671.73 560.792 667.971 561.873 664.299 563.002C668.658 530.272 674.232 497.525 678.554 464.764C679.217 459.739 680.063 454.56 680.98 449.58C680.976 447.568 682.123 439.535 682.437 437.302C683.213 431.794 683.747 424.993 684.734 419.629C687.69 400.274 690.098 380.84 691.957 361.349C690.947 360.643 688.505 359.188 687.882 358.339C683.271 355.864 675.179 350.632 670.801 347.667C668.486 346.324 666.233 344.879 664.047 343.335C664.567 340.051 666.723 337.507 667.822 334.25C667.903 333.868 667.972 333.441 668.115 333.08Z"/><path fill="#ECA560" d="M680.98 449.58C681.496 449.823 682.232 449.94 682.213 450.583C681.234 483.348 682.837 516.845 676.124 549.128C675.495 552.151 675.366 556.188 675.278 559.334C671.73 560.792 667.971 561.873 664.299 563.002C668.658 530.272 674.232 497.525 678.554 464.764C679.217 459.739 680.063 454.56 680.98 449.58Z"/><path fill="#ECA560" d="M668.115 333.08C669.412 333.796 674.081 336.411 674.91 337.171C676.941 338.085 682.367 341.13 684.171 342.449C687.081 344.155 692.482 347.55 695.326 348.884C695.033 352.733 695.231 353.648 695.775 357.034C697.762 369.391 694.708 413.638 685.609 421.061L684.888 420.648L684.734 419.629C687.69 400.274 690.098 380.84 691.957 361.349C690.947 360.643 688.505 359.188 687.882 358.339C683.271 355.864 675.179 350.632 670.801 347.667C668.486 346.324 666.233 344.879 664.047 343.335C664.567 340.051 666.723 337.507 667.822 334.25C667.903 333.868 667.972 333.441 668.115 333.08Z"/><path fill="#ECA560" d="M668.115 333.08C669.412 333.796 674.081 336.411 674.91 337.171C676.941 338.085 682.367 341.13 684.171 342.449L683.176 344.084C686.883 349.025 691.242 354.969 691.957 361.349C690.947 360.643 688.505 359.188 687.882 358.339C683.271 355.864 675.179 350.632 670.801 347.667C668.486 346.324 666.233 344.879 664.047 343.335C664.567 340.051 666.723 337.507 667.822 334.25C667.903 333.868 667.972 333.441 668.115 333.08Z"/><path fill="#CB7633" d="M680.474 343.583C681.819 342.219 681.807 342.832 683.176 344.084C686.883 349.025 691.242 354.969 691.957 361.349C690.947 360.643 688.505 359.188 687.882 358.339C687.669 356.217 681.902 345.774 680.474 343.583Z"/><path fill="#E39243" d="M667.822 334.25C668.445 339.131 669.038 343.037 670.801 347.667C668.486 346.324 666.233 344.879 664.047 343.335C664.567 340.051 666.723 337.507 667.822 334.25Z"/><path fill="#E39243" d="M674.91 337.171C676.941 338.085 682.367 341.13 684.171 342.449L683.176 344.084C681.807 342.832 681.819 342.219 680.474 343.583C679.259 342.838 675.838 339.362 675.265 337.98L674.91 337.171Z"/><path fill="#ECA560" d="M679.409 557.388C674.831 553.782 685.303 530.29 685.326 524.82C685.325 525.132 685.845 522.097 685.81 522.201L685.937 522.283C686.2 524.721 685.171 528.995 684.523 531.31C686.402 534.857 687.109 538.941 691.035 538.731C690.864 543.139 690.239 548.415 689.988 553.013L679.409 557.388Z"/><path fill="#E39243" d="M699.548 368.79L699.589 368.344C699.98 363.685 700.565 359.225 699.925 354.501C699.7 352.847 699.279 353.011 700.441 352.155C701.046 352.479 703.884 353.948 703.861 354.311C703.202 364.621 701.552 381.553 700.942 391.257C698.773 392.823 699.326 388.844 699.21 387.38C698.721 381.214 699.385 374.952 699.548 368.79Z"/><path fill="#C56E2A" d="M699.522 411.52C698.112 409.791 697.104 405.986 698.168 404.16L698.332 404.18C699.3 405.299 698.352 408.569 698.772 408.936L698.874 408.882C699.184 408.206 699.733 395.985 699.806 396.103C699.302 396.294 699.275 397.637 698.747 397.72C697.849 396.993 699.082 381.867 697.602 379.845C697.409 379.58 697.618 370.834 699.548 368.79C699.385 374.952 698.721 381.214 699.21 387.38C699.326 388.844 698.773 392.823 700.942 391.257C701.076 395.547 700.226 407.363 699.522 411.52Z"/><path fill="#FEFEFE" d="M176.924 687.068L199.258 687.116C209.501 710.284 220.551 733.223 230.607 756.459C241.494 734.279 251.89 710.015 262.714 687.403L283.497 687.404C279.761 696.123 274.142 707.13 270.03 715.919C257.439 743.914 242.757 771.938 230.533 799.951C221.644 779.966 211.832 760.284 202.318 740.576L176.924 687.068Z"/><path fill="#8E432E" d="M570.506 519.209L601.754 574.273C607.114 583.507 613.64 593.334 618.532 602.705C636.334 608.541 652.984 615.128 670.508 621.154C705.35 633.135 741.313 644.357 776.022 656.547C776.764 656.651 778.856 656.837 779.289 657.641C778.987 658.299 770.782 658.073 769.653 658.038C763.76 658.974 745.03 658.169 738.502 658.327C733.955 658.437 714.893 658.719 711.341 657.759C703.501 655.64 690.77 650.246 682.649 647.167L615.43 621.813C611.412 614.695 604.442 597.653 600.876 589.347C590.78 565.829 580.799 543.26 569.938 520.058L570.506 519.209Z"/><path fill="#9A4C30" d="M776.022 656.547C776.764 656.651 778.856 656.837 779.289 657.641C778.987 658.299 770.782 658.073 769.653 658.038C772.635 656.888 775.538 658.273 776.022 656.547Z"/><path fill="#D98538" d="M632.472 583.681C658.693 591.923 683.184 599.954 709.603 607.585C718.363 610.281 727.159 612.859 735.988 615.32C739.281 616.26 747.687 618.489 750.477 619.73C759.694 621.534 774.31 626.559 783.483 629.598L818.053 638.972C821.901 640.017 834.972 643.199 837.42 644.797C841.242 647.293 848.589 654.629 852.806 658.062C848.405 658.07 843.588 658.177 839.225 657.959C831.981 658.154 820.744 658.749 813.792 657.65C810.815 657.18 801.542 654.018 798.052 652.884L765.477 642.043L708.526 623.257C695.013 618.889 678.903 614.273 665.924 608.902L665.576 607.602C662.604 605.506 660.081 603.497 657.244 601.218C653.512 598.687 649.851 596.526 645.986 594.222C644.597 593.337 643.487 592.702 642.139 591.718C639.882 590.853 633.981 586.67 632.302 584.788L632.472 583.681Z"/><defs><linearGradient id="gradient_1" gradientUnits="userSpaceOnUse" x1="755.51727" y1="629.00891" x2="752.77258" y2="637.75372"><stop offset="0" stop-color="#C16D2D"/><stop offset="1" stop-color="#E69442"/></linearGradient></defs><path fill="url(#gradient_1)" d="M665.576 607.602C672.351 606.387 676.298 609.356 682.584 609.994C715.681 613.353 746.046 626.197 777.205 636.745C798.43 643.93 820.236 648.554 841.158 657.348L839.616 657.468L839.225 657.959C831.981 658.154 820.744 658.749 813.792 657.65C810.815 657.18 801.542 654.018 798.052 652.884L765.477 642.043L708.526 623.257C695.013 618.889 678.903 614.273 665.924 608.902L665.576 607.602Z"/><defs><linearGradient id="gradient_2" gradientUnits="userSpaceOnUse" x1="669.68066" y1="591.86597" x2="664.61279" y2="603.57782"><stop offset="0" stop-color="#CA702D"/><stop offset="1" stop-color="#DB8C40"/></linearGradient></defs><path fill="url(#gradient_2)" d="M632.472 583.681C658.693 591.923 683.184 599.954 709.603 607.585C705.496 609.088 688.518 605.143 683.357 604.558C675.283 603.642 666.315 601.294 658.157 600.267L657.244 601.218C653.512 598.687 649.851 596.526 645.986 594.222C644.597 593.337 643.487 592.702 642.139 591.718C639.882 590.853 633.981 586.67 632.302 584.788L632.472 583.681Z"/><path fill="#D98538" d="M642.139 591.718L642.615 591.51C643.747 590.964 645.722 591.753 645.889 593.313C645.915 593.617 645.947 593.92 645.986 594.222C644.597 593.337 643.487 592.702 642.139 591.718Z"/><path fill="#CB7633" d="M750.477 619.73C759.694 621.534 774.31 626.559 783.483 629.598C781.368 631 781.538 630.869 778.768 629.976C775.768 629.008 752.926 622.749 752.346 621.722C752.47 621.576 752.593 621.429 752.717 621.283L752.474 621.119C751.409 621.086 751.247 620.544 750.477 619.73Z"/><defs><linearGradient id="gradient_3" gradientUnits="userSpaceOnUse" x1="723.07532" y1="446.25864" x2="712.5047" y2="445.96545"><stop offset="0" stop-color="#DA8745"/><stop offset="1" stop-color="#EDA761"/></linearGradient></defs><path fill="url(#gradient_3)" d="M700.029 330.621L714.019 336.327C716.758 337.595 719.037 338.614 721.732 340.038C722.753 349.638 721.185 362.138 722.108 372.078C722.507 376.378 722.462 381.919 722.374 386.294L723.411 438.231C723.601 446.181 724.403 461.609 723.944 468.938L725.219 538.108C723.168 539.027 721.075 540 718.994 540.833C716.336 541.971 713.181 543.419 710.502 544.331C709.152 544.893 707.725 545.423 706.455 546.122L705.263 546.097C704.225 544.785 705.907 518.277 706.025 514.485L708.043 442.397L710.336 381.172C710.743 370.12 710.765 358.242 711.611 347.319C708.928 345.84 705.639 344.323 702.851 342.959L702.676 342.012C702.057 338.517 700.355 333.637 700.029 330.621Z"/><path fill="#ECA560" d="M700.029 330.621L714.019 336.327C714.041 339.095 713.711 347.059 714.413 349.16C714.433 350.388 714.493 351.489 714.405 352.719C713.311 358.144 714.188 365.658 715.076 371.114C714.807 381.925 715.744 392.67 715.663 403.418C715.329 447.597 707.88 491.459 707.267 535.613C707.226 538.55 707.11 543.347 706.455 546.122L705.263 546.097C704.225 544.785 705.907 518.277 706.025 514.485L708.043 442.397L710.336 381.172C710.743 370.12 710.765 358.242 711.611 347.319C708.928 345.84 705.639 344.323 702.851 342.959L702.676 342.012C702.057 338.517 700.355 333.637 700.029 330.621Z"/><path fill="#CB7633" d="M715.076 371.114C715.471 370.391 715.785 369.843 716.121 369.089L716.539 369.092L716.501 369.895C716.236 376.136 716.907 383.098 717.247 389.381C718.577 414.005 719.038 438.386 714.954 462.838C711.41 484.053 712.012 505.212 711.38 526.636C711.296 529.341 709.976 542.551 710.502 544.331C709.152 544.893 707.725 545.423 706.455 546.122C707.11 543.347 707.226 538.55 707.267 535.613C707.88 491.459 715.329 447.597 715.663 403.418C715.744 392.67 714.807 381.925 715.076 371.114Z"/><path fill="#ECA560" d="M718.994 540.833C718.387 538.7 720.013 521.084 720.362 517.721C721.324 508.476 719.204 475.859 723.227 468.987L723.944 468.938L725.219 538.108C723.168 539.027 721.075 540 718.994 540.833Z"/><path fill="#CB7633" d="M714.019 336.327C716.758 337.595 719.037 338.614 721.732 340.038C722.753 349.638 721.185 362.138 722.108 372.078C722.507 376.378 722.462 381.919 722.374 386.294C721.911 384.542 721.7 380.784 721.685 380.755L721.601 380.778C721.278 381.423 721.782 383.16 721.334 383.235L721.307 383.214C720.996 382.072 720.321 379.991 720.114 379.001C718.79 372.667 718.796 365.576 717.532 359.227C716.904 356.078 717.221 352.521 716.735 349.818C715.302 350.937 716.714 353.903 715.495 355.283C715.334 353.262 716.053 350.131 714.413 349.16C713.711 347.059 714.041 339.095 714.019 336.327Z"/><path fill="#C56E2A" d="M714.413 349.16C716.053 350.131 715.334 353.262 715.495 355.283C715.259 356.224 715.091 357.149 714.958 358.111L715.008 358.054C714.828 358.539 714.906 358.4 714.78 358.58L714.787 358.517L714.702 358.422L714.735 358.406C714.478 356.838 714.515 354.409 714.405 352.719C714.493 351.489 714.433 350.388 714.413 349.16Z"/><path fill="#E39243" d="M719.823 444.867C720.136 444.91 720.49 444.9 720.696 445.091C721.277 447.937 719.806 464.779 719.676 468.59C719.745 466.556 717.365 477.801 718.249 475.239C717.041 473.463 718.481 464.013 718.744 461.499C719.383 455.407 720.137 451.17 719.823 444.867Z"/><path fill="#FEFEFE" d="M411.495 687.354C417.74 687.185 424.826 687.395 431.131 687.453C430.861 716.482 431.367 746.186 431.341 775.323L489.225 775.265L489.187 794.002C486.805 794.393 470.25 794.137 466.68 794.135L411.59 794.108L411.495 687.354Z"/><path fill="#8E432E" d="M372.758 332.807C372.758 333.971 372.399 337.654 372.463 338.248C372.929 342.575 366.918 351.656 369.609 354.392C368.125 356.055 362.899 360.478 360.973 362.22C358.956 363.861 356.731 365.986 354.778 367.758C359.991 394.35 365.681 420.847 371.844 447.236C377.232 470.961 382.222 493.948 388.263 517.585C381.614 518.928 374.946 520.179 368.263 521.34C366.234 513.277 364.233 500.855 362.847 492.579L355.21 446.789C351.666 427.462 348.237 408.114 344.923 388.746C343.196 378.849 340.928 367.466 339.77 357.583C346.983 350.939 356.331 344.192 364.462 338.643C365.674 337.441 371.097 333.918 372.758 332.807Z"/><path fill="#863D29" d="M372.758 332.807C372.758 333.971 372.399 337.654 372.463 338.248C372.929 342.575 366.918 351.656 369.609 354.392C368.125 356.055 362.899 360.478 360.973 362.22C360.893 354 363.547 351.072 364.949 343.246C365.286 341.365 365.487 340.064 364.462 338.643C365.674 337.441 371.097 333.918 372.758 332.807Z"/><path fill="#9A4C30" d="M202.049 627.856L351.926 603.903C352.523 604.744 352.958 605.513 353.777 606.119C355.404 609.313 357.119 612.622 359.307 615.464C360.425 617.27 361.466 619.59 362.632 621.13L364.221 623.625C363.734 624.515 363.38 625.678 362.175 625.738C339.598 626.853 315.649 631.124 293.201 631.558C286.714 633.159 271.309 633.838 264.095 634.568C239.459 637.059 211.951 637.391 187.562 641.121L202.049 627.856Z"/><path fill="#8E432E" d="M293.201 631.558C295.257 629.49 304.726 626.886 308.018 625.784C319.824 621.83 331.12 616.992 342.471 611.907C345.672 610.473 351.388 608.296 353.777 606.119C355.404 609.313 357.119 612.622 359.307 615.464C360.425 617.27 361.466 619.59 362.632 621.13L364.221 623.625C363.734 624.515 363.38 625.678 362.175 625.738C339.598 626.853 315.649 631.124 293.201 631.558Z"/><path fill="#D98538" d="M556.876 166.528C557.809 165.302 560.295 164.114 561.688 163.46C563.731 164.249 565.353 165.097 567.307 165.935C567.976 166.391 568.649 166.84 569.326 167.283C570.034 167.685 570.573 167.912 571.138 168.484C573.568 170.102 575.229 171.537 577.422 173.39C574.362 176.14 570.55 179.219 567.163 181.549C566.295 182.588 565.286 183.215 564.179 183.985C562.835 185.374 558.895 188.362 557.262 189.407C556.43 190.405 556.01 190.609 554.947 191.407L551.57 193.94C549.755 195.274 547.926 196.588 546.084 197.883C545.401 198.784 542.041 201.102 541.004 201.854C538.604 203.811 535.111 206.825 532.635 208.456C531.93 209.336 526.246 213.49 525.027 214.361C512.062 225.052 495.951 235.929 482.631 246.651C479.607 249.086 464.984 260.429 462.423 261.686C460.1 263.658 454.366 267.743 451.671 269.465L424.295 290.456C413.069 298.907 402.991 306.142 391.992 315.192L391.243 315.587C390.172 316.227 389.973 316.387 388.733 316.428C404.204 300.975 422.057 285.962 438.204 270.619C466.397 243.831 495.101 216.739 524.922 191.823C535.055 183.357 545.878 173.739 556.876 166.528Z"/><path fill="#CB7633" d="M556.876 166.528C557.809 165.302 560.295 164.114 561.688 163.46C563.731 164.249 565.353 165.097 567.307 165.935C567.976 166.391 568.649 166.84 569.326 167.283C570.034 167.685 570.573 167.912 571.138 168.484C573.568 170.102 575.229 171.537 577.422 173.39C574.362 176.14 570.55 179.219 567.163 181.549C566.295 182.588 565.286 183.215 564.179 183.985C562.835 185.374 558.895 188.362 557.262 189.407C556.43 190.405 556.01 190.609 554.947 191.407L551.57 193.94C549.755 195.274 547.926 196.588 546.084 197.883C545.401 198.784 542.041 201.102 541.004 201.854C542.047 198.712 544.79 194.175 546.416 190.96C550.127 183.622 552.943 176.011 556.829 168.892C557.407 167.833 557.221 167.537 556.876 166.528Z"/><path fill="#E39243" d="M567.307 165.935C567.976 166.391 568.649 166.84 569.326 167.283C570.034 167.685 570.573 167.912 571.138 168.484C573.568 170.102 575.229 171.537 577.422 173.39C574.362 176.14 570.55 179.219 567.163 181.549C566.295 182.588 565.286 183.215 564.179 183.985C562.835 185.374 558.895 188.362 557.262 189.407C557.358 186.513 565.395 169.299 567.307 165.935Z"/><path fill="#E39243" d="M571.138 168.484C573.568 170.102 575.229 171.537 577.422 173.39C574.362 176.14 570.55 179.219 567.163 181.549C567.009 179.526 570.109 170.371 571.138 168.484Z"/><path fill="#CB7633" d="M569.326 167.283C570.034 167.685 570.573 167.912 571.138 168.484C570.109 170.371 567.009 179.526 567.163 181.549C566.295 182.588 565.286 183.215 564.179 183.985C564.999 179.318 567.563 171.626 569.326 167.283Z"/><path fill="#E39243" d="M546.084 197.883C546.06 197.817 545.658 196.95 545.75 196.718C547.266 192.918 549.941 189.126 551.923 185.503C554.419 180.94 556.377 176.215 558.509 171.484C559.131 170.105 560.116 167.384 561.488 166.601C561.873 166.382 562.376 166.282 562.794 166.472C563.119 166.619 563.315 166.882 563.371 167.232C563.454 167.754 563.18 168.301 562.909 168.726C561.674 170.661 560.802 173.117 560.039 175.278C558.744 178.947 551.834 190.584 551.688 192.487C551.652 192.972 551.618 193.457 551.57 193.94C549.755 195.274 547.926 196.588 546.084 197.883Z"/><path fill="#CB7633" d="M451.671 269.465L451.694 269.149C451.997 264.404 459.453 258.964 462.92 255.668C471.335 247.668 478.002 238.846 485.236 229.92C477.389 248.868 473.708 247.772 459.778 261.741C460.416 262.67 461.313 262.036 462.423 261.686C460.1 263.658 454.366 267.743 451.671 269.465Z"/><path fill="#CB7633" d="M525.027 214.361C527.948 204.664 544.644 179.861 552.208 172.694C548.292 180.13 532.571 202.255 532.635 208.456C531.93 209.336 526.246 213.49 525.027 214.361Z"/><path fill="#8E432E" d="M617.142 341.071L623.218 346.363C623.741 346.84 624 347.08 624.502 347.583C627.659 350.22 630.101 352.871 632.923 355.834C631.161 372.97 630.188 391.726 628.598 409.217C625.279 446.379 620.82 483.43 615.225 520.317C613.539 531.043 611.943 543.596 609.74 554.1C607.938 551.812 605.809 549.376 603.923 547.121C605.351 515.874 608.012 484.475 609.457 453.203C610.016 441.109 611.709 429.037 612.476 416.954L615.353 365.671C615.805 358.144 616.091 348.366 617.142 341.071Z"/><path fill="#9A4C30" d="M624.502 347.583C624.514 350.448 625.354 349.613 625.944 352.015C626.867 355.766 626.616 360.359 626.272 364.206C626.023 366.199 625.713 367.546 624.96 369.385C622.212 376.102 623.151 363.709 622.985 362.251C622.595 358.841 622.203 354.749 621.951 351.248C621.767 348.698 620.727 347.148 623.218 346.363C623.741 346.84 624 347.08 624.502 347.583Z"/><path fill="#9A4C30" d="M614.989 393.463C615.344 393.612 616.344 394.023 616.569 394.403C620.185 400.496 626.732 405.305 626.706 412.642C623.705 410.41 615.499 397.294 614.989 393.463Z"/><path fill="#E39243" d="M656.845 571.657C659.771 571.937 663.791 572.741 666.68 573.442C669.103 573.633 672.245 574.326 674.724 574.729C702.562 580.238 730.324 586.123 758.003 592.38C767.531 594.472 777.529 596.122 787.041 598.308C789.241 598.813 792.218 602.134 793.926 603.86C795.931 605.684 797.642 607.275 799.547 609.216C801.797 611.007 803.354 612.307 805.465 614.295L812.406 620.832L816.875 624.836C817.937 625.617 820.879 628.233 821.935 629.228C825.89 632.521 820.214 630.439 818.772 630.015C806.777 627.242 794.419 622.4 782.558 618.908C779.629 618.045 776.045 617.14 773.231 616.101L771.463 615.438C768.201 614.924 759.287 612.117 755.948 611.13L727.502 602.766C724.191 602.091 710.164 597.935 707.352 596.695C700.48 595.268 688.064 591.164 680.916 589.007C677.055 588.365 667.054 585.228 663.173 583.994C654.907 581.646 646.682 579.159 638.499 576.536L638.044 575.506C636.868 572.97 639.509 573.681 641.77 573.122C644.263 572.749 656.556 573.558 656.845 571.657Z"/><path fill="#E39243" d="M656.845 571.657C659.771 571.937 663.791 572.741 666.68 573.442C669.103 573.633 672.245 574.326 674.724 574.729C702.562 580.238 730.324 586.123 758.003 592.38C767.531 594.472 777.529 596.122 787.041 598.308C789.241 598.813 792.218 602.134 793.926 603.86C795.931 605.684 797.642 607.275 799.547 609.216C796.494 608.329 792.916 607.549 790.012 606.544C760.001 596.145 729.169 589.344 697.315 588.764C693.606 588.696 682.864 586.605 680.916 589.007C677.055 588.365 667.054 585.228 663.173 583.994C654.907 581.646 646.682 579.159 638.499 576.536L638.044 575.506C636.868 572.97 639.509 573.681 641.77 573.122C644.263 572.749 656.556 573.558 656.845 571.657Z"/><path fill="#CB7633" d="M663.173 583.994C669.482 578.533 755.531 593.191 769.058 597.363C773.596 598.762 791.411 604.583 793.926 603.86C795.931 605.684 797.642 607.275 799.547 609.216C796.494 608.329 792.916 607.549 790.012 606.544C760.001 596.145 729.169 589.344 697.315 588.764C693.606 588.696 682.864 586.605 680.916 589.007C677.055 588.365 667.054 585.228 663.173 583.994Z"/><path fill="#C56E2A" d="M656.845 571.657C659.771 571.937 663.791 572.741 666.68 573.442C663.508 575.098 663.608 574.238 659.875 574.463C650.861 574.562 647.067 574.496 638.044 575.506C636.868 572.97 639.509 573.681 641.77 573.122C644.263 572.749 656.556 573.558 656.845 571.657Z"/><path fill="#CB7633" d="M666.68 573.442C669.103 573.633 672.245 574.326 674.724 574.729C670.376 576.321 664.419 575.438 659.875 574.463C663.608 574.238 663.508 575.098 666.68 573.442Z"/><path fill="#E39243" d="M727.502 602.766C729.072 601.515 729.726 601.488 732.026 601.825C751.982 604.743 771.674 609.461 791.288 614.065C796.892 615.38 807.613 621.054 812.406 620.832L816.875 624.836C817.937 625.617 820.879 628.233 821.935 629.228C825.89 632.521 820.214 630.439 818.772 630.015C806.777 627.242 794.419 622.4 782.558 618.908C779.629 618.045 776.045 617.14 773.231 616.101L771.463 615.438C768.201 614.924 759.287 612.117 755.948 611.13L727.502 602.766Z"/><path fill="#D98538" d="M771.463 615.438C773.722 615.153 777.829 615.555 780.262 615.032C782.133 614.631 786.333 616.604 788.415 617.147C796.152 619.163 803.814 621.53 811.242 624.535C814.216 625.739 814.015 625.899 816.875 624.836C817.937 625.617 820.879 628.233 821.935 629.228C825.89 632.521 820.214 630.439 818.772 630.015C806.777 627.242 794.419 622.4 782.558 618.908C779.629 618.045 776.045 617.14 773.231 616.101L771.463 615.438Z"/><path fill="#CB7633" d="M821.935 629.228C825.89 632.521 820.214 630.439 818.772 630.015C820.123 629.835 820.662 629.803 821.935 629.228Z"/><path fill="#CB7633" d="M707.352 596.695L707.503 596.089L707.183 595.921C713.049 595.5 721.195 597.024 727.228 597.896C747.758 600.86 768.482 604.467 788.487 610.02C792.268 611.069 802.806 615.454 805.465 614.295L812.406 620.832C807.613 621.054 796.892 615.38 791.288 614.065C771.674 609.461 751.982 604.743 732.026 601.825C729.726 601.488 729.072 601.515 727.502 602.766C724.191 602.091 710.164 597.935 707.352 596.695Z"/><defs><linearGradient id="gradient_4" gradientUnits="userSpaceOnUse" x1="281.12289" y1="633.59375" x2="280.36526" y2="656.89362"><stop offset="0" stop-color="#833C29"/><stop offset="1" stop-color="#9B5235"/></linearGradient></defs><path fill="url(#gradient_4)" d="M371.064 635.47C373.712 638.729 385.689 651.42 388.91 654.066C378.982 653.84 368.626 654.257 358.641 654.322L306.541 654.45L173.604 654.536L178.234 650.422C209.987 648.701 243.841 645.317 275.691 642.882C300.174 641.158 324.642 639.239 349.094 637.125C356.385 636.508 363.847 636.236 371.064 635.47Z"/><defs><linearGradient id="gradient_5" gradientUnits="userSpaceOnUse" x1="475.81738" y1="240.44586" x2="512.94574" y2="280.34396"><stop offset="0" stop-color="#C97432"/><stop offset="1" stop-color="#B15E3A"/></linearGradient></defs><path fill="url(#gradient_5)" d="M397.739 312.774C402.791 309.418 407.741 305.403 412.778 301.913C443.086 280.913 472.081 256.949 503.005 236.867C526.965 221.307 552.109 205.296 577.005 191.434C580.942 196.191 586.665 205.493 590.319 210.978L552.003 226.619C541.277 230.969 530.097 235.262 519.744 240.359C487.208 256.377 456.792 276.259 426.51 296.116C418.263 301.523 409.461 306.554 401.056 311.831C400.87 312.144 400.812 312.117 400.473 312.306L398.689 313.644L397.739 312.774Z"/><path fill="#9A4C30" d="M640.727 363.96C647.11 369.836 650.304 373.195 656.169 379.407C655.54 385.58 654.202 392.127 653.03 398.264C650.716 406.889 648.107 423.726 646.158 433.267L627.402 527.692C625.801 535.568 624.266 543.457 622.797 551.358C622.174 554.798 621.587 562.866 619.253 564.85L618.445 564.39C617.398 560.807 620.513 535.802 621.125 529.835C626.115 481.291 631.779 432.818 638.114 384.431C638.317 378.521 639.848 369.909 640.727 363.96Z"/><path fill="#8E432E" d="M640.727 363.96C647.11 369.836 650.304 373.195 656.169 379.407C655.54 385.58 654.202 392.127 653.03 398.264L652.847 398.049C652.506 397.655 650.454 394.386 650.743 394.5C649.991 395.362 650.876 396.228 650.921 397.043C650.972 397.982 653.212 400.082 651.029 399.993C650.235 399.961 648.824 395.93 648.15 394.962C646.961 393.27 645.804 391.556 644.68 389.82C644.355 389.326 643.739 388.016 642.926 388.181C642.867 388.913 644.098 389.577 643.924 390.295L643.755 390.349C642.221 389.894 640.14 384.52 638.114 384.431C638.317 378.521 639.848 369.909 640.727 363.96Z"/><path fill="#D98538" d="M450.647 489.212L451.651 489.73L410.523 597.413L395.478 637.74C394.595 640.084 389.998 652.604 388.91 654.066C385.689 651.42 373.712 638.729 371.064 635.47C374.312 631.754 384.941 610.939 388.399 604.941C399.848 585.088 410.637 564.06 421.529 543.861C431.189 525.945 441.92 507.552 450.647 489.212Z"/><path fill="#CB7633" d="M409.608 579.84C410.584 583.162 405.357 589.029 405.622 590.851L405.753 590.931C405.92 590.402 406.757 588.831 407.502 589.403C407.349 590.415 406.982 590.626 406.59 591.572L405.777 593.518C403.421 599.26 397.363 605.884 395.209 612.189C394.761 613.5 393.85 615.996 393.219 617.127C392.841 618.202 392.575 619.166 392.11 620.201L392.191 619.951L391.885 620.538C391.807 620.518 391.73 620.498 391.652 620.478C391.046 618.827 402.156 596.949 403.931 592.693L404.882 590.468C406.482 586.793 408.236 583.667 409.608 579.84Z"/><path fill="#E39243" d="M372.273 363.477C376.94 378.982 380.874 394.875 385.587 410.439C390.207 427.589 394.958 443.3 399.967 460.272C404.333 475.069 406.92 490.032 412.06 505.057L403.831 511.463C401.724 513.189 399.057 515.093 396.842 516.755C395.701 512.911 394.607 506.74 393.714 502.674L387.225 473.531C379.8 440.441 372.212 405.654 364.238 372.836L372.273 363.477Z"/><defs><linearGradient id="gradient_6" gradientUnits="userSpaceOnUse" x1="390.29874" y1="463.51227" x2="403.08704" y2="461.29254"><stop offset="0" stop-color="#CB7731"/><stop offset="1" stop-color="#E79443"/></linearGradient></defs><path fill="url(#gradient_6)" d="M385.587 410.439C390.207 427.589 394.958 443.3 399.967 460.272C404.333 475.069 406.92 490.032 412.06 505.057L403.831 511.463C401.228 503.861 401.161 485.262 400.581 475.999C398.871 479.756 401.878 497.136 400.997 502.472C400.833 503.461 402.957 508.598 402.758 510.829C401.174 512.393 402.015 512.109 400.279 512.472C399.006 509.62 399.691 500.54 399.41 496.791C398.594 485.925 398.387 474.944 396.245 464.238C395.615 461.089 395.697 456.403 394.495 453.288C393.902 451.751 393.927 451.555 393.761 449.877L393.716 449.365L393.335 449.577C394.821 458.261 401.811 503.234 397.765 507.175C396.914 504.209 396.099 497.862 395.613 494.446C393.384 479.058 392.816 463.411 390.649 448.008C388.788 434.774 383.882 424.214 385.587 410.439Z"/><path fill="#E39243" d="M681.17 368.545C681.809 369.422 681.861 369.474 682.367 370.397C681.591 374.291 679.861 384.61 678.873 387.857C677.18 399.308 674.99 410.583 672.718 421.929C668.887 441.065 666.654 460.328 663.227 479.564C662.787 483.393 661.943 487.72 661.253 491.546C658.966 492.545 654.763 494.881 652.719 495.73C648.515 497.475 639.924 510.266 637.79 510.837C638.005 509.04 638.306 507.254 638.691 505.486C638.993 504.119 639.315 502.762 639.63 501.399C640.119 498.293 640.562 495.236 641.25 492.166C641.956 485.801 644.442 473.648 645.68 466.881C648.81 449.779 652.106 430.772 656.276 413.943C667.71 401.614 672.888 382.679 681.17 368.545Z"/><path fill="#ECA560" d="M681.17 368.545C681.809 369.422 681.861 369.474 682.367 370.397C681.591 374.291 679.861 384.61 678.873 387.857C673.198 391.837 669.881 406.019 666.907 412.493C664.557 417.609 661.656 423.697 660.354 429.175C659.195 436.652 659.606 445.429 657.581 452.755C655.422 460.566 649.893 465.738 646.366 472.902C643 479.738 643.571 486.546 641.679 493.133C641.209 492.498 641.323 492.832 641.25 492.166C641.956 485.801 644.442 473.648 645.68 466.881C648.81 449.779 652.106 430.772 656.276 413.943C667.71 401.614 672.888 382.679 681.17 368.545Z"/><path fill="#ECA560" d="M639.63 501.399C642.864 498.416 643.645 496.087 645.998 492.5C649.37 487.361 653.262 484.05 658.699 481.339L659.214 481.088C660.404 480.493 661.919 479.813 663.227 479.564C662.787 483.393 661.943 487.72 661.253 491.546C658.966 492.545 654.763 494.881 652.719 495.73C648.515 497.475 639.924 510.266 637.79 510.837C638.005 509.04 638.306 507.254 638.691 505.486C638.993 504.119 639.315 502.762 639.63 501.399Z"/><path fill="#8E432E" d="M381.018 525.632L382.077 525.535L382.168 526.018C378.963 529.108 345.683 553.621 342.718 554.943C339.479 556.387 335.452 557.201 332.025 558.165L308.25 564.773C289.833 570.059 271.876 576.099 253.598 581.596L252.648 581.64C253.38 579.65 287.241 550.67 291.076 548.211C292.074 547.571 302.386 545.355 304.705 544.837C311.203 543.361 317.685 541.819 324.152 540.211C342.822 535.599 362.552 529.442 381.018 525.632Z"/><path fill="#9A4C30" d="M393.291 318.623C445.038 286.398 495.949 251.737 554.839 233.931C565.538 230.696 575.007 226.696 586.322 226.002C593.018 230.254 593.945 234.442 596.283 241.693C554.045 244.499 510.347 252.309 472.997 273.38C457.621 282.054 441.04 294.931 426.874 305.704C417.098 313.14 407.151 322.376 397.105 329.993C395.338 328.674 392.9 320.989 393.291 318.623Z"/><defs><linearGradient id="gradient_7" gradientUnits="userSpaceOnUse" x1="381.31738" y1="430.42456" x2="438.466" y2="463.45026"><stop offset="0" stop-color="#CD7B33"/><stop offset="1" stop-color="#ED9848"/></linearGradient></defs><path fill="url(#gradient_7)" d="M393.334 343.56C393.87 345.801 394.371 348.05 394.838 350.306C395.07 351.639 395.422 352.951 395.485 354.304C396.141 356.897 396.487 359.543 397.071 362.149C397.418 363.913 397.723 365.826 398.012 367.613L398.255 369.41C399.141 372.532 399.571 377.686 400.209 381.124L400.57 383.247C400.673 383.75 400.775 384.252 400.878 384.755L402.366 392.29C407.484 419.631 412.743 446.735 416.587 474.299C417.173 478.495 419.945 495.522 419.382 498.864L418.776 499.535C415.706 497.265 397.81 433.819 397.058 427.023C396.655 425.788 396.429 425.01 396.15 423.73C395.884 422.826 395.632 421.924 395.413 421.007L394.9 419.009C394.106 415.978 392.789 411.635 392.327 408.682C391.953 407.892 391.921 407.871 391.726 407.019C391.002 404.593 390.312 402.158 389.656 399.714C389.28 398.321 388.941 396.926 388.496 395.555C388.144 394.23 387.897 393.109 387.465 391.788C386.925 389.886 386.459 387.946 385.93 386.036C385.41 383.966 384.863 381.904 384.29 379.848C383.905 378.208 383.477 376.576 383.134 374.927C382.788 373.889 382.747 373.801 382.541 372.77C381.715 369.597 380.918 366.416 380.149 363.228L379.923 362.257C379.548 360.708 379.216 359.152 378.84 357.603C383.12 353.2 388.802 347.679 393.334 343.56Z"/><path fill="#E39243" d="M393.334 343.56C393.87 345.801 394.371 348.05 394.838 350.306C395.07 351.639 395.422 352.951 395.485 354.304C396.141 356.897 396.487 359.543 397.071 362.149L396.504 362.616C394.227 364.396 387.614 376.68 386.024 379.75L384.29 379.848C383.905 378.208 383.477 376.576 383.134 374.927C382.788 373.889 382.747 373.801 382.541 372.77C381.715 369.597 380.918 366.416 380.149 363.228L379.923 362.257C379.548 360.708 379.216 359.152 378.84 357.603C383.12 353.2 388.802 347.679 393.334 343.56Z"/><path fill="#E39243" d="M383.134 374.927C383.286 374.636 383.497 374.007 383.888 373.992C388.255 373.824 391.059 357.643 395.485 354.304C396.141 356.897 396.487 359.543 397.071 362.149L396.504 362.616C394.227 364.396 387.614 376.68 386.024 379.75L384.29 379.848C383.905 378.208 383.477 376.576 383.134 374.927Z"/><path fill="#CB7633" d="M394.838 350.306C395.07 351.639 395.422 352.951 395.485 354.304C391.059 357.643 388.255 373.824 383.888 373.992C383.497 374.007 383.286 374.636 383.134 374.927C382.788 373.889 382.747 373.801 382.541 372.77C385.398 369.12 385.201 367.2 387.009 363.252C389.023 358.854 392.006 354.231 394.838 350.306Z"/><defs><linearGradient id="gradient_8" gradientUnits="userSpaceOnUse" x1="390.24014" y1="387.99954" x2="398.15018" y2="391.24991"><stop offset="0" stop-color="#D07930"/><stop offset="1" stop-color="#F5A550"/></linearGradient></defs><path fill="url(#gradient_8)" d="M386.024 379.75C387.614 376.68 394.227 364.396 396.504 362.616L397.071 362.149C397.418 363.913 397.723 365.826 398.012 367.613L398.255 369.41C399.141 372.532 399.571 377.686 400.209 381.124L399.806 381.824C398.702 383.662 399.647 386.828 398.175 388.307C394.901 391.595 393.813 405.102 391.726 407.019C391.002 404.593 390.312 402.158 389.656 399.714C389.28 398.321 388.941 396.926 388.496 395.555C388.144 394.23 387.897 393.109 387.465 391.788C386.925 389.886 386.459 387.946 385.93 386.036C385.41 383.966 384.863 381.904 384.29 379.848L386.024 379.75Z"/><path fill="#E39243" d="M386.024 379.75C387.614 376.68 394.227 364.396 396.504 362.616L397.071 362.149C397.418 363.913 397.723 365.826 398.012 367.613L398.255 369.41C397.017 375.55 390.885 382.288 389.41 390.864L387.465 391.788C386.925 389.886 386.459 387.946 385.93 386.036C385.41 383.966 384.863 381.904 384.29 379.848L386.024 379.75Z"/><path fill="#CB7633" d="M386.024 379.75C387.614 376.68 394.227 364.396 396.504 362.616L397.071 362.149C397.418 363.913 397.723 365.826 398.012 367.613C394.987 368.851 389.724 378.671 387.721 382.137C387.026 380.837 387.039 380.754 386.024 379.75Z"/><path fill="#D98538" d="M386.024 379.75C387.039 380.754 387.026 380.837 387.721 382.137C387.272 383.514 386.677 384.795 385.93 386.036C385.41 383.966 384.863 381.904 384.29 379.848L386.024 379.75Z"/><path fill="#D98538" d="M387.465 391.788L389.41 390.864C389.504 392.809 389.379 392.896 388.747 394.783L388.496 395.555C388.144 394.23 387.897 393.109 387.465 391.788Z"/><path fill="#E39243" d="M400.209 381.124L400.57 383.247C400.673 383.75 400.775 384.252 400.878 384.755L402.366 392.29C401.934 392.957 401.512 393.63 401.097 394.308C400.701 397.283 399.923 400.289 399.323 403.228L398.906 405.247C397.616 411.786 397.024 417.42 397.657 424.104L396.15 423.73C395.884 422.826 395.632 421.924 395.413 421.007L394.9 419.009C394.106 415.978 392.789 411.635 392.327 408.682C391.953 407.892 391.921 407.871 391.726 407.019C393.813 405.102 394.901 391.595 398.175 388.307C399.647 386.828 398.702 383.662 399.806 381.824L400.209 381.124Z"/><path fill="#D98538" d="M400.209 381.124L400.57 383.247C400.673 383.75 400.775 384.252 400.878 384.755L402.366 392.29C401.934 392.957 401.512 393.63 401.097 394.308L401.066 393.758C400.996 392.276 401.174 391.815 400.932 390.217L400.364 390.493C400.503 390.308 400.643 390.123 400.782 389.938C398.821 393.433 396.56 400.132 395.577 404.011C395.343 404.916 395.133 405.828 394.947 406.744C395.179 405.641 393.218 411.696 393.676 410.812L393.485 410.298L393.514 410.52C393.478 409.791 393.085 409.166 392.874 408.483C392.719 408.536 392.564 408.589 392.408 408.642C392.381 408.655 392.354 408.668 392.327 408.682C391.953 407.892 391.921 407.871 391.726 407.019C393.813 405.102 394.901 391.595 398.175 388.307C399.647 386.828 398.702 383.662 399.806 381.824L400.209 381.124Z"/><path fill="#D98538" d="M397.657 424.104C398.112 425.306 397.642 425.925 397.058 427.023C396.655 425.788 396.429 425.01 396.15 423.73L397.657 424.104Z"/><path fill="#D98538" d="M417.951 319.816C418.219 341.168 420.091 360.802 421.346 381.901C422.713 406.362 423.73 430.841 424.398 455.331C424.867 469.851 425.957 482.948 425.314 497.51C421.202 478.492 419.824 459.226 416.814 440.167C413.056 416.369 410.125 392.535 406.58 368.758C405.403 357.621 402.855 346.589 401.19 335.567C404.616 332.275 410.26 326.888 413.781 323.971C415.197 322.488 416.449 321.21 417.951 319.816Z"/><defs><linearGradient id="gradient_9" gradientUnits="userSpaceOnUse" x1="399.96201" y1="345.81097" x2="412.68347" y2="348.45355"><stop offset="0" stop-color="#CD7529"/><stop offset="1" stop-color="#EE9D46"/></linearGradient></defs><path fill="url(#gradient_9)" d="M401.19 335.567C404.616 332.275 410.26 326.888 413.781 323.971C415.926 329.681 408.889 356.394 408.994 363.757C409.027 366.063 408.454 368.88 408.054 371.141L407.958 371.135C407.862 371.025 407.019 369.348 406.58 368.758C405.403 357.621 402.855 346.589 401.19 335.567Z"/><path fill="#ECA560" d="M661.253 491.546C661.13 492.482 661.075 493.462 660.782 494.364C660.605 495.618 660.14 498.667 659.77 499.883C659.52 501.876 659.083 504.99 658.601 506.918L656.77 517.046C655.982 520.907 655.216 525.043 654.292 528.852C653.733 531.912 653.036 534.951 652.385 537.993L651.891 540.243C651.615 541.516 651.31 542.747 651.096 544.04C649.665 552.415 647.971 561.416 647.37 569.874C650.284 570.266 653.176 570.839 656.044 571.482L656.845 571.657C656.556 573.558 644.263 572.749 641.77 573.122C639.509 573.681 636.868 572.97 638.044 575.506L638.499 576.536L634.607 575.346C631.753 574.636 628.904 573.908 626.059 573.162C627.457 562.126 630.483 551.081 632.284 540.021C632.576 538.381 633.25 533.399 633.774 532.159C633.959 530.573 634.16 529.548 634.414 527.997L634.881 525.243C635.176 523.556 635.773 519.593 636.355 518.127C636.634 515.918 637.125 512.949 637.79 510.837C639.924 510.266 648.515 497.475 652.719 495.73C654.763 494.881 658.966 492.545 661.253 491.546Z"/><path fill="#E39243" d="M661.253 491.546C661.13 492.482 661.075 493.462 660.782 494.364C660.605 495.618 660.14 498.667 659.77 499.883C659.52 501.876 659.083 504.99 658.601 506.918C651.616 510.652 643.875 525.405 638.211 531.433C635.845 533.951 635.11 537.421 632.284 540.021C632.576 538.381 633.25 533.399 633.774 532.159C633.959 530.573 634.16 529.548 634.414 527.997L634.881 525.243C635.176 523.556 635.773 519.593 636.355 518.127C636.634 515.918 637.125 512.949 637.79 510.837C639.924 510.266 648.515 497.475 652.719 495.73C654.763 494.881 658.966 492.545 661.253 491.546Z"/><path fill="#CB7633" d="M633.774 532.159C633.99 532.395 634.346 532.889 634.754 532.716C634.996 532.118 634.243 531.642 634.551 530.972C635.228 531.034 635.482 531.839 636.146 530.663C638.29 526.796 640.649 523.052 643.212 519.45C645.913 515.629 656.485 502.363 659.77 499.883C659.52 501.876 659.083 504.99 658.601 506.918C651.616 510.652 643.875 525.405 638.211 531.433C635.845 533.951 635.11 537.421 632.284 540.021C632.576 538.381 633.25 533.399 633.774 532.159Z"/><path fill="#CB7633" d="M661.253 491.546C661.13 492.482 661.075 493.462 660.782 494.364C655.921 490.253 644.182 510.021 641.29 512.748C639.597 514.344 638.297 516.772 636.355 518.127C636.634 515.918 637.125 512.949 637.79 510.837C639.924 510.266 648.515 497.475 652.719 495.73C654.763 494.881 658.966 492.545 661.253 491.546Z"/><path fill="#ECA560" d="M653.066 528.582C653.823 528.122 653.857 527.971 654.292 528.852C653.733 531.912 653.036 534.951 652.385 537.993L651.891 540.243C651.615 541.516 651.31 542.747 651.096 544.04C649.665 552.415 647.971 561.416 647.37 569.874C650.284 570.266 653.176 570.839 656.044 571.482L656.845 571.657C656.556 573.558 644.263 572.749 641.77 573.122C635.925 572.95 637.871 573.184 637.461 567.502C636.569 555.169 639.835 547.766 646.144 537.621C648.03 534.532 650.226 531.642 652.698 528.999L653.066 528.582Z"/><path fill="#CB7633" d="M647.37 569.874C639.479 567.444 646.486 548.222 651.096 544.04C649.665 552.415 647.971 561.416 647.37 569.874Z"/><path fill="#CB7633" d="M634.607 575.346C635.157 573.784 634.011 563.198 634.338 560.099C635.734 546.881 644.629 523.635 656.77 517.046C655.982 520.907 655.216 525.043 654.292 528.852C653.857 527.971 653.823 528.122 653.066 528.582L652.698 528.999C650.226 531.642 648.03 534.532 646.144 537.621C639.835 547.766 636.569 555.169 637.461 567.502C637.871 573.184 635.925 572.95 641.77 573.122C639.509 573.681 636.868 572.97 638.044 575.506L638.499 576.536L634.607 575.346Z"/><path fill="#ECA560" d="M617.611 318.142C619.117 319.033 621.657 320.718 622.72 322.082C624.243 323.033 626.229 324.456 627.559 325.632C629.941 327.099 632.892 329.273 635.008 331.149C637.661 333.109 641.153 335.55 643.618 337.619C644.883 338.446 650.295 342.018 651.108 343.032C659.047 347.722 665.877 352.823 673.072 358.502C676.141 360.925 679.726 362.907 682.766 365.207C682.593 365.518 682.269 365.987 682.208 366.37C681.824 367.366 681.737 367.647 681.17 368.545C672.888 382.679 667.71 401.614 656.276 413.943C656.728 410.131 658.376 402.903 659.194 399.113C660.213 392.259 662.662 382.374 664.086 375.14C660.556 372.581 652.428 365.161 649.381 361.962C647.991 360.814 643.878 357.446 642.839 356.289C641.53 355.231 638.078 352.223 636.825 350.997C634.467 348.816 632.187 346.903 629.843 344.651C628.799 343.847 625.098 340.886 624.405 339.93C624.433 338.501 624.478 338.135 623.85 336.808C621.943 332.743 620.37 328.53 619.147 324.21C618.576 322.151 617.822 320.193 617.611 318.142Z"/><path fill="#CB7633" d="M643.618 337.619C644.883 338.446 650.295 342.018 651.108 343.032C659.047 347.722 665.877 352.823 673.072 358.502C676.141 360.925 679.726 362.907 682.766 365.207C682.593 365.518 682.269 365.987 682.208 366.37C681.824 367.366 681.737 367.647 681.17 368.545C672.888 382.679 667.71 401.614 656.276 413.943C656.728 410.131 658.376 402.903 659.194 399.113L659.819 400.158C667.048 392.419 672.541 379.047 675.992 369.318C672.458 369.085 670.656 368.968 667.382 367.512C659.041 363.803 646.187 346.06 643.618 337.619Z"/><path fill="#ECA560" d="M651.108 343.032C659.047 347.722 665.877 352.823 673.072 358.502C676.141 360.925 679.726 362.907 682.766 365.207C682.593 365.518 682.269 365.987 682.208 366.37C678.24 366.784 672.349 367.103 668.494 365.477C664.021 363.591 649.009 347.568 651.108 343.032Z"/><path fill="#ECA560" d="M617.611 318.142C619.117 319.033 621.657 320.718 622.72 322.082C624.243 323.033 626.229 324.456 627.559 325.632C631.075 334.14 634.046 342.054 638.959 349.94C638.106 350.857 638.035 350.743 636.825 350.997C634.467 348.816 632.187 346.903 629.843 344.651C628.799 343.847 625.098 340.886 624.405 339.93C624.433 338.501 624.478 338.135 623.85 336.808C621.943 332.743 620.37 328.53 619.147 324.21C618.576 322.151 617.822 320.193 617.611 318.142Z"/><path fill="#CB7633" d="M617.611 318.142C619.117 319.033 621.657 320.718 622.72 322.082C622.839 327.962 629.778 339.063 629.843 344.651C628.799 343.847 625.098 340.886 624.405 339.93C624.433 338.501 624.478 338.135 623.85 336.808C621.943 332.743 620.37 328.53 619.147 324.21C618.576 322.151 617.822 320.193 617.611 318.142Z"/><path fill="#CB7633" d="M627.559 325.632C629.941 327.099 632.892 329.273 635.008 331.149C633.049 336.43 647.73 354.596 649.381 361.962C647.991 360.814 643.878 357.446 642.839 356.289C641.53 355.231 638.078 352.223 636.825 350.997C638.035 350.743 638.106 350.857 638.959 349.94C634.046 342.054 631.075 334.14 627.559 325.632Z"/><path fill="#D98538" d="M638.959 349.94C640.594 350.719 644.2 353.943 642.839 356.289C641.53 355.231 638.078 352.223 636.825 350.997C638.035 350.743 638.106 350.857 638.959 349.94Z"/><path fill="#8E432E" d="M603.688 608.949C606.675 614.576 609.168 623.026 612.023 629.097L658.672 647.03C664.343 649.241 672.514 652.031 677.763 654.438C671.923 653.977 665.237 654.348 659.259 654.404C651.445 654.41 643.631 654.344 635.819 654.206C633.296 654.173 630.722 654.199 628.211 654.084C620.222 654.109 610.711 654.557 603.037 654.347L599.168 639.493C598.829 638.169 598.475 636.998 598.108 635.692C597.994 634.972 598.006 634.98 597.762 634.25L597.029 632.11C595.447 625.121 592.467 616.717 590.546 609.311C593.417 609.147 592.437 609.345 594.749 609.569L597.002 609.773C599.289 609.976 601.972 610.523 603.688 608.949Z"/><path fill="#8E432E" d="M598.108 635.692L601.242 636.528C610.303 638.956 623.082 646.15 628.211 654.084C620.222 654.109 610.711 654.557 603.037 654.347L599.168 639.493C598.829 638.169 598.475 636.998 598.108 635.692Z"/><path fill="#9A4C30" d="M597.029 632.11C611.856 631.013 619.603 640.568 631.03 648.403C633.63 650.186 634.316 651.711 635.819 654.206C633.296 654.173 630.722 654.199 628.211 654.084C623.082 646.15 610.303 638.956 601.242 636.528L598.108 635.692C597.994 634.972 598.006 634.98 597.762 634.25L597.029 632.11Z"/><path fill="#E39243" d="M736.761 551.774C738.851 553.525 740.96 555.464 743.005 557.285L746.725 560.553L749.599 563.364C750.701 564.242 752.345 565.778 753.4 566.784C755.756 569.069 758.022 571.124 760.419 573.332C761.284 574.017 762.04 574.73 762.851 575.472C765.681 577.599 770.116 581.563 772.761 583.964L756.254 580.895L753.505 580.396C752.666 580.247 751.76 580.022 750.923 579.834C747.067 579.372 740.147 578.041 736.435 576.992C734.815 576.833 733.329 576.404 731.751 575.998C730.058 575.912 727.671 575.358 726.021 574.931C722.173 574.577 716.825 573.406 712.927 572.685C697.314 570.009 681.747 567.072 666.231 563.877C671.969 563.358 681.842 561.121 687.924 560.072C704.221 557.413 720.5 554.647 736.761 551.774Z"/><path fill="#E39243" d="M726.021 574.931C726.421 573.53 727.299 573.258 728.751 573.223C732.209 573.14 735.433 572.341 738.741 571.41L739.532 571.179C744.738 569.716 748.331 567.121 753.4 566.784C755.756 569.069 758.022 571.124 760.419 573.332C761.284 574.017 762.04 574.73 762.851 575.472C765.681 577.599 770.116 581.563 772.761 583.964L756.254 580.895L753.505 580.396C752.666 580.247 751.76 580.022 750.923 579.834C747.067 579.372 740.147 578.041 736.435 576.992C734.815 576.833 733.329 576.404 731.751 575.998C730.058 575.912 727.671 575.358 726.021 574.931Z"/><path fill="#E39243" d="M762.851 575.472C765.681 577.599 770.116 581.563 772.761 583.964L756.254 580.895L753.505 580.396C752.666 580.247 751.76 580.022 750.923 579.834C752.288 577.294 759.619 576.367 762.851 575.472Z"/><path fill="#D98538" d="M760.419 573.332C761.284 574.017 762.04 574.73 762.851 575.472C759.619 576.367 752.288 577.294 750.923 579.834C747.067 579.372 740.147 578.041 736.435 576.992C739.102 577.013 743.665 576.722 746.281 576.476C749.804 576.871 757.842 575.922 760.419 573.332Z"/><path fill="#E39243" d="M731.751 575.998C734.96 574.283 742.855 575.496 746.281 576.476C743.665 576.722 739.102 577.013 736.435 576.992C734.815 576.833 733.329 576.404 731.751 575.998Z"/><path fill="#CB7633" d="M743.005 557.285L746.725 560.553C743.253 560.534 737.808 561.937 734.073 562.572C722.581 564.524 710.371 567.514 698.71 567.473C697.022 567.467 691.11 567.151 690.108 566.094C695.249 563.43 708.246 563.813 714.581 562.517C723.222 560.75 734.76 559.888 743.005 557.285Z"/><path fill="#D98538" d="M749.599 563.364C750.701 564.242 752.345 565.778 753.4 566.784C748.331 567.121 744.738 569.716 739.532 571.179L738.741 571.41C735.433 572.341 732.209 573.14 728.751 573.223C727.299 573.258 726.421 573.53 726.021 574.931C722.173 574.577 716.825 573.406 712.927 572.685C714.438 571.954 716.088 571.262 717.75 571.102C727.584 570.153 736.877 568.124 746.265 565.031C747.971 564.468 748.263 565.005 749.599 563.364Z"/><path fill="#E39243" d="M485.895 175.553L487.142 181.492C487.459 183.024 487.639 185.446 488.041 186.75C488.919 189.596 487.413 191.748 489.876 193.069L489.915 193.351L490.347 194.085L490.202 194.646C491.137 196.334 491.06 210.168 490.971 212.585C487.105 215.772 482.165 220.901 478.136 224.455C477.448 225.268 472.431 229.909 471.337 230.927C468.236 234.04 464.849 237.531 461.647 240.483C460.519 241.952 456.159 246.102 454.682 247.497C453.964 240.374 459.311 219.014 457.406 215.574C458.25 214.035 462.247 208.347 463.405 206.852C465.453 203.842 467.617 200.913 469.892 198.072C470.691 196.651 474.932 190.919 476.14 189.282C478.152 186.474 480.017 183.538 482.169 180.836C482.866 179.588 484.961 176.764 485.895 175.553Z"/><path fill="#E39243" d="M469.892 198.072C471.552 199.098 471.073 198.93 471.093 200.996C471.195 211.015 472.021 220.885 471.337 230.927C468.236 234.04 464.849 237.531 461.647 240.483C460.519 241.952 456.159 246.102 454.682 247.497C453.964 240.374 459.311 219.014 457.406 215.574C458.25 214.035 462.247 208.347 463.405 206.852C465.453 203.842 467.617 200.913 469.892 198.072Z"/><path fill="#CB7633" d="M463.405 206.852C463.496 212.081 460.645 238.334 461.647 240.483C460.519 241.952 456.159 246.102 454.682 247.497C453.964 240.374 459.311 219.014 457.406 215.574C458.25 214.035 462.247 208.347 463.405 206.852Z"/><path fill="#D98538" d="M476.14 189.282L476.233 189.727C478.06 198.17 476.513 220.906 478.136 224.455C477.448 225.268 472.431 229.909 471.337 230.927C472.021 220.885 471.195 211.015 471.093 200.996C471.073 198.93 471.552 199.098 469.892 198.072C470.691 196.651 474.932 190.919 476.14 189.282Z"/><path fill="#CB7633" d="M485.895 175.553L487.142 181.492C487.459 183.024 487.639 185.446 488.041 186.75C488.919 189.596 487.413 191.748 489.876 193.069L489.915 193.351L490.347 194.085L490.202 194.646C489.24 195.545 488.81 195.974 487.959 196.991L487.33 196.656L485.855 197.258C483.891 193.682 482.872 184.97 482.169 180.836C482.866 179.588 484.961 176.764 485.895 175.553Z"/><path fill="#39110B" d="M487.33 196.656C488.306 195.032 488.599 194.609 489.915 193.351L490.347 194.085L490.202 194.646C489.24 195.545 488.81 195.974 487.959 196.991L487.33 196.656Z"/><path fill="#C56E2A" d="M487.33 196.656L487.959 196.991C486.456 198.975 484.64 200.928 482.95 202.758C483.941 200.686 484.713 199.233 485.855 197.258L487.33 196.656Z"/><path fill="#E39243" d="M386.775 561.524C385.895 570.145 385.099 578.734 383.55 587.25C383.202 589.164 382.911 590.019 383.651 591.854C382.299 594.358 377.898 601.265 376.312 603.511C372.743 610.168 368.244 617.168 364.221 623.625L362.632 621.13C361.466 619.59 360.425 617.27 359.307 615.464C357.119 612.622 355.404 609.313 353.777 606.119C352.958 605.513 352.523 604.744 351.926 603.903C356.346 599.047 360.079 594.504 364.316 589.605C365.163 588.183 366.102 587.132 367.173 585.893C371.554 579.683 376.278 573.723 381.324 568.04C382.407 566.551 385.486 562.942 386.775 561.524Z"/><path fill="#C56E2A" d="M386.775 561.524C385.895 570.145 385.099 578.734 383.55 587.25C383.202 589.164 382.911 590.019 383.651 591.854C382.299 594.358 377.898 601.265 376.312 603.511C375.591 596.913 382.943 571.322 381.324 568.04C382.407 566.551 385.486 562.942 386.775 561.524Z"/><path fill="#D98538" d="M364.316 589.605C365.199 591.615 364.373 593.53 363.919 595.993C363.463 598.337 362.952 600.67 362.386 602.989C361.502 606.754 360.397 611.834 359.307 615.464C357.119 612.622 355.404 609.313 353.777 606.119C352.958 605.513 352.523 604.744 351.926 603.903C356.346 599.047 360.079 594.504 364.316 589.605Z"/><path fill="#C56E2A" d="M367.173 585.893C368.575 588.633 367.87 590.636 367.414 593.746C367.132 595.671 366.796 597.587 366.406 599.492L365.394 604.49C364.071 610.831 363.106 614.742 362.632 621.13C361.466 619.59 360.425 617.27 359.307 615.464C360.397 611.834 361.502 606.754 362.386 602.989C362.952 600.67 363.463 598.337 363.919 595.993C364.373 593.53 365.199 591.615 364.316 589.605C365.163 588.183 366.102 587.132 367.173 585.893Z"/><path fill="#9A4C30" d="M575.418 520.881C585.56 533.934 595.404 547.159 604.919 560.671C608.947 566.39 613.712 572.237 617.598 577.955C621.428 579.077 628.711 581.949 632.472 583.681L632.302 584.788C633.981 586.67 639.882 590.853 642.139 591.718C643.487 592.702 644.597 593.337 645.986 594.222C649.851 596.526 653.512 598.687 657.244 601.218C660.081 603.497 662.604 605.506 665.576 607.602L665.924 608.902C652.941 605.661 634.644 599.54 622.197 595.245C609.102 577.397 598.741 557.808 586.491 539.411C582.578 533.535 578.74 527.58 574.861 521.677L575.418 520.881Z"/><path fill="#E39243" d="M457.406 215.574C459.311 219.014 453.964 240.374 454.682 247.497L443.617 257.402C442.806 258.327 435.892 264.807 434.652 265.922C432.762 267.714 431.034 269.571 429.101 271.364C428.116 272.689 423.764 276.726 422.352 277.973C422.475 275.589 423.538 264.612 422.83 263.125C423.755 261.595 427.956 256.482 429.287 254.843C431.281 252.128 433.364 249.204 435.382 246.547C436.224 245.053 441.097 238.138 442.186 236.798C445.698 230.92 452.96 221.164 457.406 215.574Z"/><path fill="#E39243" d="M435.382 246.547C437.38 248.576 434.786 262.525 434.652 265.922C432.762 267.714 431.034 269.571 429.101 271.364C428.116 272.689 423.764 276.726 422.352 277.973C422.475 275.589 423.538 264.612 422.83 263.125C423.755 261.595 427.956 256.482 429.287 254.843C431.281 252.128 433.364 249.204 435.382 246.547Z"/><path fill="#CB7633" d="M422.83 263.125C423.755 261.595 427.956 256.482 429.287 254.843C429.507 259.61 429.351 263.814 428.508 268.507C428.288 269.732 428.503 270.322 429.101 271.364C428.116 272.689 423.764 276.726 422.352 277.973C422.475 275.589 423.538 264.612 422.83 263.125Z"/><path fill="#CB7633" d="M442.186 236.798C443.704 242.255 442.092 254.385 443.617 257.402C442.806 258.327 435.892 264.807 434.652 265.922C434.786 262.525 437.38 248.576 435.382 246.547C436.224 245.053 441.097 238.138 442.186 236.798Z"/><path fill="#8E432E" d="M538.595 275.706C551.457 290.137 563.744 305.071 575.43 320.47C575.996 335.633 577.273 350.435 578.303 365.558C578.725 371.75 579.499 379.633 579.562 385.74C580.222 390.271 579.939 396.325 579.796 400.937C579.142 398.538 578.562 396.503 578.652 393.946C577.968 385.033 575.869 376.011 574.735 367.2C570.291 332.672 556.801 305.852 537.966 276.956L538.595 275.706Z"/><path fill="#583226" d="M579.562 385.74C580.222 390.271 579.939 396.325 579.796 400.937C579.142 398.538 578.562 396.503 578.652 393.946C578.81 394.027 579.013 394.165 579.154 394.158C579.575 393.471 579.484 387.178 579.562 385.74Z"/><path fill="#E39243" d="M522.398 165.105C523.491 167.021 523.176 178.7 523.838 182.273C522.403 183.467 521.055 184.77 519.633 186.005C518.838 186.926 515.656 189.731 514.571 190.691C512.729 192.424 511.108 193.984 509.164 195.627C507.959 196.986 505.341 199.388 503.96 200.551C501.32 202.751 498.756 205.516 496.087 207.865C494.663 209.288 492.503 211.328 490.971 212.585C491.06 210.168 491.137 196.334 490.202 194.646L490.347 194.085C492.081 192.719 493.591 191.075 495.236 189.568C497.845 187.085 501.188 183.872 503.959 181.646C505.064 180.531 507.073 179.059 508.346 177.98C510.312 176.279 511.956 174.76 513.877 173.035C514.928 171.718 518.741 168.409 520.197 167.065C520.917 166.397 521.651 165.744 522.398 165.105Z"/><path fill="#CB7633" d="M522.398 165.105C523.491 167.021 523.176 178.7 523.838 182.273C522.403 183.467 521.055 184.77 519.633 186.005C518.838 186.926 515.656 189.731 514.571 190.691C514.238 184.515 514.166 178.841 513.877 173.035C514.928 171.718 518.741 168.409 520.197 167.065C520.917 166.397 521.651 165.744 522.398 165.105Z"/><path fill="#E39243" d="M522.398 165.105C523.491 167.021 523.176 178.7 523.838 182.273C522.403 183.467 521.055 184.77 519.633 186.005C518.565 183.713 519.839 170.231 520.197 167.065C520.917 166.397 521.651 165.744 522.398 165.105Z"/><path fill="#E39243" d="M513.877 173.035C514.166 178.841 514.238 184.515 514.571 190.691C512.729 192.424 511.108 193.984 509.164 195.627C508.225 190.726 508.678 183.195 508.346 177.98C510.312 176.279 511.956 174.76 513.877 173.035Z"/><path fill="#CB7633" d="M495.236 189.568C495.872 194.033 494.938 205.247 496.087 207.865C494.663 209.288 492.503 211.328 490.971 212.585C491.06 210.168 491.137 196.334 490.202 194.646L490.347 194.085C492.081 192.719 493.591 191.075 495.236 189.568Z"/><path fill="#CB7633" d="M508.346 177.98C508.678 183.195 508.225 190.726 509.164 195.627C507.959 196.986 505.341 199.388 503.96 200.551C504.172 197.382 506.017 183.404 503.959 181.646C505.064 180.531 507.073 179.059 508.346 177.98Z"/><defs><linearGradient id="gradient_10" gradientUnits="userSpaceOnUse" x1="399.18698" y1="567.91858" x2="386.20944" y2="566.13586"><stop offset="0" stop-color="#CD712B"/><stop offset="1" stop-color="#EC9E4C"/></linearGradient></defs><path fill="url(#gradient_10)" d="M411.224 530.537C412.245 530.331 412.342 530.456 413.459 530.66C414.059 530.652 414.633 530.691 415.207 530.541C414.804 533.625 414.7 535.979 415.351 539.056C414.496 540.862 411.904 544.863 410.755 546.477C409.103 549.757 403.319 559.343 401.214 562.581C400.796 563.666 397.603 568.648 396.857 569.9L383.651 591.854C382.911 590.019 383.202 589.164 383.55 587.25C385.099 578.734 385.895 570.145 386.775 561.524C391.809 555.327 397.551 547.1 402.734 541.368C403.448 539.998 409.83 532.269 411.224 530.537Z"/><path fill="#E39243" d="M411.224 530.537C412.245 530.331 412.342 530.456 413.459 530.66C414.059 530.652 414.633 530.691 415.207 530.541C414.804 533.625 414.7 535.979 415.351 539.056C414.496 540.862 411.904 544.863 410.755 546.477C409.103 549.757 403.319 559.343 401.214 562.581C399.487 558.765 402.952 546.463 402.734 541.368C403.448 539.998 409.83 532.269 411.224 530.537Z"/><path fill="#C56E2A" d="M413.459 530.66C414.059 530.652 414.633 530.691 415.207 530.541C414.804 533.625 414.7 535.979 415.351 539.056C414.496 540.862 411.904 544.863 410.755 546.477C410.123 541.929 411.321 534.774 413.459 530.66Z"/><path fill="#E39243" d="M540.905 148.637C541.924 147.41 544.743 144.553 546.368 144.406C548.26 145.441 549.954 146.094 551.846 147.046C554.599 148.02 558.305 149.603 561.19 150.71L553.05 157.096C552.528 157.512 552.103 157.809 551.565 158.183C549.754 159.906 547.531 161.796 545.615 163.408C544.971 164.127 542.385 166.32 541.622 166.968C539.93 168.433 538.32 169.944 536.626 171.407C534.51 173.666 526.702 179.793 523.838 182.273C523.176 178.7 523.491 167.021 522.398 165.105C525.811 161.249 534.169 154.611 538.283 151.035C539.166 150.149 539.966 149.447 540.905 148.637Z"/><path fill="#C56E2A" d="M522.398 165.105C525.811 161.249 534.169 154.611 538.283 151.035C537.765 154.647 536.332 168.213 536.626 171.407C534.51 173.666 526.702 179.793 523.838 182.273C523.176 178.7 523.491 167.021 522.398 165.105Z"/><path fill="#D98538" d="M546.368 144.406C548.26 145.441 549.954 146.094 551.846 147.046C554.599 148.02 558.305 149.603 561.19 150.71L553.05 157.096C552.528 157.512 552.103 157.809 551.565 158.183C549.754 159.906 547.531 161.796 545.615 163.408C544.67 161.204 546.067 147.618 546.368 144.406Z"/><path fill="#CB7633" d="M551.846 147.046C554.599 148.02 558.305 149.603 561.19 150.71L553.05 157.096C552.528 157.512 552.103 157.809 551.565 158.183C551.562 154.446 551.852 150.633 551.846 147.046Z"/><path fill="#CB7633" d="M540.905 148.637C541.924 147.41 544.743 144.553 546.368 144.406C546.067 147.618 544.67 161.204 545.615 163.408C544.971 164.127 542.385 166.32 541.622 166.968C541.667 164.546 542.507 150.493 542.263 149.299C542.002 149.164 541.741 149.029 541.48 148.894L540.905 148.637Z"/><path fill="#E39243" d="M426.961 357.254C429.848 354.558 433.711 352.277 435.413 348.5C436.101 346.971 434.987 346.047 437.063 345.62C437.426 350.876 437.105 355.991 436.942 361.25C436.756 367.233 437.329 375.338 436.571 381.095C436.603 386.975 436.259 391.829 436.001 397.603C436.027 401.212 436.025 404.821 435.994 408.43C432.476 411.868 432.761 413.694 427.961 417.119C427.811 411.919 427.598 406.931 427.644 401.714C427.506 398.694 427.543 395.439 427.519 392.395C427.296 381.78 426.612 367.507 426.961 357.254Z"/><defs><linearGradient id="gradient_11" gradientUnits="userSpaceOnUse" x1="436.17026" y1="369.17648" x2="424.49225" y2="364.48181"><stop offset="0" stop-color="#CC782E"/><stop offset="1" stop-color="#ED9947"/></linearGradient></defs><path fill="url(#gradient_11)" d="M426.961 357.254C429.848 354.558 433.711 352.277 435.413 348.5C436.101 346.971 434.987 346.047 437.063 345.62C437.426 350.876 437.105 355.991 436.942 361.25C436.756 367.233 437.329 375.338 436.571 381.095C436.204 377.088 436.338 371.876 436.243 367.694C434.942 370.37 432.211 377.161 431.887 379.987C431.317 384.967 428.702 388.499 427.519 392.395C427.296 381.78 426.612 367.507 426.961 357.254Z"/><path fill="#CB7633" d="M436.001 397.603C436.027 401.212 436.025 404.821 435.994 408.43C432.476 411.868 432.761 413.694 427.961 417.119C427.811 411.919 427.598 406.931 427.644 401.714C427.994 403.184 428.332 407.586 428.31 407.547L428.495 407.547C428.747 407.4 435.196 398.532 436.001 397.603Z"/><path fill="#E39243" d="M527.769 133.544C532.454 133.315 534.367 133.617 538.919 134.385C535.893 138.318 528.831 146.003 525.185 150.006C524.09 151.734 519.655 157.048 518.26 158.597C517.399 160.069 512.919 165.474 511.684 166.951C510.779 168.276 509.973 169.249 508.932 170.438C508.208 166.255 506.866 151.463 505.246 149.005C506.681 147.095 509.124 144.141 510.741 142.402C512.019 140.998 512.883 140.268 514.365 139.105C515.375 138.144 517.338 136.968 518.581 136.28C520.529 135.298 521.38 135.148 523.326 134.454L523.809 134.278C525.115 133.966 526.454 133.821 527.769 133.544Z"/><path fill="#D98538" d="M527.769 133.544C532.454 133.315 534.367 133.617 538.919 134.385C535.893 138.318 528.831 146.003 525.185 150.006C523.633 146.985 527.026 137.34 527.769 133.544Z"/><path fill="#CB7633" d="M505.246 149.005C506.681 147.095 509.124 144.141 510.741 142.402C511.241 148.024 509.227 162.379 511.684 166.951C510.779 168.276 509.973 169.249 508.932 170.438C508.208 166.255 506.866 151.463 505.246 149.005Z"/><path fill="#C56E2A" d="M523.809 134.278C525.115 133.966 526.454 133.821 527.769 133.544C527.026 137.34 523.633 146.985 525.185 150.006C524.09 151.734 519.655 157.048 518.26 158.597C518.794 148.496 523.815 141.146 523.809 134.278Z"/><path fill="#D98538" d="M514.365 139.105C515.375 138.144 517.338 136.968 518.581 136.28C518.471 138.024 514.97 157.282 514.847 157.477C513.125 157.321 514.595 158.832 513.709 159.867L513.831 159.863L513.723 159.85C511.806 156.738 515.601 142.151 514.365 139.105Z"/><path fill="#FEFEFE" d="M375.419 816.918L381.989 816.473C380.483 817.411 378.952 818.308 377.397 819.162C377.105 819.312 376.813 819.463 376.521 819.613C379.659 828.356 383.102 836.985 386.844 845.487C387.378 845.351 387.464 845.413 388.025 845.483C387.876 845.973 387.546 847.013 387.706 847.5C390.984 857.497 396.577 873.375 400.769 882.634L401.24 882.766L403.184 882.471C401.722 885.505 400.77 888.989 398.991 892.534L398.57 892.612C396.495 890.797 384.466 858.349 382.464 853.259C382.028 852.066 382.009 851.895 381.846 850.647C377.631 843.047 374.068 826.031 368.272 818.783L368.151 817.127C369.128 817.107 370.186 817.008 371.164 816.937L375.419 816.918Z"/><path fill="#F1EFEE" d="M375.419 816.918L381.989 816.473C380.483 817.411 378.952 818.308 377.397 819.162C377.105 819.312 376.813 819.463 376.521 819.613C376.397 818.46 375.906 817.973 375.419 816.918Z"/><path fill="#D98538" d="M425.826 313.485C431.17 307.862 436.912 303.535 442.627 298.35C440.603 302.103 439.484 303.945 438.59 308.253C438.04 310.863 437.631 313.5 437.366 316.154C437.252 318.846 437.208 322.545 436.984 325.1C437.17 329.654 437.214 335.696 437.005 340.264C437.084 342.155 437.22 343.722 437.063 345.62C434.987 346.047 436.101 346.971 435.413 348.5C433.711 352.277 429.848 354.558 426.961 357.254L426.967 356.133C426.521 352.779 426.387 345.113 426.529 341.537C426.154 332.07 426.156 322.865 425.826 313.485Z"/><path fill="#CB7633" d="M426.529 341.537C431.479 336.256 432.186 324.649 436.227 318.327C436.853 317.346 436.932 317.233 437.366 316.154C437.252 318.846 437.208 322.545 436.984 325.1C437.17 329.654 437.214 335.696 437.005 340.264C437.084 342.155 437.22 343.722 437.063 345.62C434.987 346.047 436.101 346.971 435.413 348.5C433.711 352.277 429.848 354.558 426.961 357.254L426.967 356.133C426.521 352.779 426.387 345.113 426.529 341.537Z"/><path fill="#E39243" d="M427.157 344.749C429.956 340.617 432.255 336.168 434.007 331.494C434.631 329.799 435.419 325.536 436.984 325.1C437.17 329.654 437.214 335.696 437.005 340.264C434.114 342.97 430.746 351.628 427.206 352.367C427.111 349.741 427.045 347.379 427.157 344.749Z"/><path fill="#FEFEFE" d="M332.144 817.73C331.383 817.58 330.605 817.541 329.905 817.273C329.618 817.163 329.653 816.811 329.765 816.765C331.103 816.221 346.28 816.565 346.545 816.758C346.318 816.883 346.091 817.007 345.864 817.132C344.603 818.199 343.548 818.809 343.092 820.349C343.459 823.097 364.761 881.551 366.776 885.412L368.154 885.556C367.121 888.202 366.396 891.348 363.979 892.511C359.347 889.778 341.569 826.927 334.399 818.706L332.144 817.73Z"/><path fill="#9E9998" d="M332.144 817.73C331.383 817.58 330.605 817.541 329.905 817.273C329.618 817.163 329.653 816.811 329.765 816.765C331.103 816.221 346.28 816.565 346.545 816.758C346.318 816.883 346.091 817.007 345.864 817.132C341.853 817.042 337.84 817.004 333.828 817.019L334.399 818.706L332.144 817.73Z"/><path fill="#F1EFEE" d="M332.144 817.73C332.967 817.163 332.923 817.108 333.828 817.019L334.399 818.706L332.144 817.73Z"/><path fill="#E39243" d="M505.246 149.005C506.866 151.463 508.208 166.255 508.932 170.438C506.758 172.961 504.861 175.356 502.605 177.888C501.731 179.226 497.653 184.073 496.505 185.336C494.363 187.838 492.064 190.662 489.876 193.069C487.413 191.748 488.919 189.596 488.041 186.75C487.639 185.446 487.459 183.024 487.142 181.492L485.895 175.553C488.236 172.384 490.39 169.153 492.837 166.049C494.082 163.938 498.746 157.784 500.436 155.556C501.892 153.268 503.498 151.079 505.246 149.005Z"/><path fill="#E39243" d="M492.837 166.049C494.26 168.275 495.227 181.202 496.505 185.336C494.363 187.838 492.064 190.662 489.876 193.069C487.413 191.748 488.919 189.596 488.041 186.75C487.639 185.446 487.459 183.024 487.142 181.492L485.895 175.553C488.236 172.384 490.39 169.153 492.837 166.049Z"/><path fill="#CB7633" d="M500.436 155.556C500.672 159.538 500.274 175.676 502.605 177.888C501.731 179.226 497.653 184.073 496.505 185.336C495.227 181.202 494.26 168.275 492.837 166.049C494.082 163.938 498.746 157.784 500.436 155.556Z"/><path fill="#9A4C30" d="M574.309 252.228C581.692 251.999 591.087 252.51 598.457 253.084C600.052 258.543 601.913 264.178 603.634 269.621C595.638 266.234 590.039 264.178 581.609 261.89C574.476 260.016 567.263 258.463 559.992 257.235C555.118 256.451 549.344 255.87 544.627 254.808C547.719 253.391 569.965 252.397 574.309 252.228Z"/><path fill="#9A4C30" d="M388.937 321.651C390.281 320.375 391.761 319.626 393.291 318.623C392.9 320.989 395.338 328.674 397.105 329.993C396.559 330.8 392.993 333.761 392.031 334.598C390.828 335.558 389.775 336.509 388.622 337.518C388.012 338.25 380.055 345.02 378.81 346.075C375.747 348.579 372.673 351.835 369.609 354.392C366.918 351.656 372.929 342.575 372.463 338.248C372.399 337.654 372.758 333.971 372.758 332.807C373.587 332.176 374.239 331.709 375.084 331.117C376.045 330.437 377.019 329.775 378.006 329.132C379.019 328.219 380.606 327.18 381.823 326.569C384.108 324.951 386.615 323.204 388.937 321.651Z"/><path fill="#9A4C30" d="M388.937 321.651C390.281 320.375 391.761 319.626 393.291 318.623C392.9 320.989 395.338 328.674 397.105 329.993C396.559 330.8 392.993 333.761 392.031 334.598C390.828 335.558 389.775 336.509 388.622 337.518C386.076 335.927 383.046 329.395 381.823 326.569C384.108 324.951 386.615 323.204 388.937 321.651Z"/><path fill="#863D29" d="M388.937 321.651C390.281 320.375 391.761 319.626 393.291 318.623C392.9 320.989 395.338 328.674 397.105 329.993C396.559 330.8 392.993 333.761 392.031 334.598C390.636 330.274 390.123 325.433 388.937 321.651Z"/><path fill="#863D29" d="M378.006 329.132C379.019 328.219 380.606 327.18 381.823 326.569C383.046 329.395 386.076 335.927 388.622 337.518C388.012 338.25 380.055 345.02 378.81 346.075C378.09 341.622 378.879 331.226 378.006 329.132Z"/><path fill="#E39243" d="M435.994 408.43C435.996 410.997 435.94 413.565 435.825 416.129C435.948 419.59 435.99 429.559 435.572 432.622C435.545 442.167 434.796 451.682 434.19 461.209C433.533 471.525 433.121 481.792 431.256 491.977C430.378 475.13 428.873 455.284 428.897 438.601C428.556 435.759 428.366 430.68 428.484 427.736C428.272 424.037 428.045 420.844 427.961 417.119C432.761 413.694 432.476 411.868 435.994 408.43Z"/><path fill="#E39243" d="M435.994 408.43C435.996 410.997 435.94 413.565 435.825 416.129C435.121 417.022 435.325 417.274 435.327 418.499C435.327 419.064 435.31 419.628 435.278 420.192L435.272 420.106C432.579 423.412 431.864 425.378 428.484 427.736C428.272 424.037 428.045 420.844 427.961 417.119C432.761 413.694 432.476 411.868 435.994 408.43Z"/><path fill="#CB7633" d="M435.272 420.106L435.278 420.192C435.31 419.628 435.327 419.064 435.327 418.499C435.325 417.274 435.121 417.022 435.825 416.129C435.948 419.59 435.99 429.559 435.572 432.622C435.511 432.055 435.339 428.9 435.178 428.632C433.5 427.672 429.301 434.598 429.086 436.918C429.032 437.48 428.969 438.041 428.897 438.601C428.556 435.759 428.366 430.68 428.484 427.736C431.864 425.378 432.579 423.412 435.272 420.106Z"/><path fill="#D98538" d="M442.31 368.079C442.733 357.207 443.036 346.331 443.219 335.452C443.342 328.753 442.993 319.093 444.288 312.728C446.461 302.042 451.058 290.642 460.253 284.28C456.664 291.78 453.074 300.023 451.834 308.264C448.81 328.354 444.901 350.057 443.348 370.275C442.368 370.193 442.577 369.124 442.31 368.079Z"/><path fill="#8E432E" d="M565.919 519.446L566.883 518.607L592.263 582.131C592.822 583.37 593.323 584.632 593.87 585.876C588.85 585.907 589.286 585.802 584.628 584.788L584.106 584.679C583.893 583.519 583.404 582.181 583.088 580.942C577.104 560.443 571.715 539.97 565.919 519.446Z"/><path fill="#9A4C30" d="M583.088 580.942C585.156 578.238 590.082 580.892 592.263 582.131C592.822 583.37 593.323 584.632 593.87 585.876C588.85 585.907 589.286 585.802 584.628 584.788L584.106 584.679C583.893 583.519 583.404 582.181 583.088 580.942Z"/><path fill="#E39243" d="M568.694 272.064C597.83 284.991 625.071 298.07 654.816 310.464C655.503 310.725 655.836 310.847 656.471 311.151C655.982 312.655 655.53 316.343 655.297 318.037L654.352 317.443C639.167 310.058 624.28 302.032 609.313 294.228C595.515 287.033 581.565 280.145 567.88 272.729L568.694 272.064Z"/><path fill="#CB7633" d="M654.816 310.464C655.503 310.725 655.836 310.847 656.471 311.151C655.982 312.655 655.53 316.343 655.297 318.037L654.352 317.443C654.485 315.369 654.479 312.439 654.816 310.464Z"/><path fill="#E39243" d="M422.83 263.125C423.538 264.612 422.475 275.589 422.352 277.973C412.537 287.664 395.838 302.737 387.09 312.654L385.611 311.746C396.433 296.842 411.106 277.22 422.83 263.125Z"/><path fill="#ECA560" d="M598.497 305.146C599.539 305.835 603.447 308.249 604.136 308.958C607.331 310.893 614.774 315.669 617.611 318.142C617.822 320.193 618.576 322.151 619.147 324.21C620.37 328.53 621.943 332.743 623.85 336.808C624.478 338.135 624.433 338.501 624.405 339.93C620.459 336.7 612.076 329.114 608.328 325.463C606.985 324.313 604.317 322.265 603.393 320.961C604.088 317.219 600.033 308.792 598.497 305.146Z"/><path fill="#CB7633" d="M598.497 305.146C599.539 305.835 603.447 308.249 604.136 308.958C603.132 311.346 607.312 322.573 608.328 325.463C606.985 324.313 604.317 322.265 603.393 320.961C604.088 317.219 600.033 308.792 598.497 305.146Z"/><path fill="#8E432E" d="M584.106 584.679L584.628 584.788C589.286 585.802 588.85 585.907 593.87 585.876C594.066 586.343 594.257 586.812 594.443 587.283C595.792 590.614 602.089 605.196 603.439 607.569L603.688 608.949C601.972 610.523 599.289 609.976 597.002 609.773L594.749 609.569C592.437 609.345 593.417 609.147 590.546 609.311C590.082 607.499 589.556 605.783 589.067 603.991C588.756 602.158 588.09 600.056 587.646 598.226L586.37 593.009C585.67 590.216 584.908 587.443 584.106 584.679Z"/><path fill="#9A4C30" d="M589.067 603.991C593.659 605.049 599.019 606.206 603.439 607.569L603.688 608.949C601.972 610.523 599.289 609.976 597.002 609.773L594.749 609.569C592.437 609.345 593.417 609.147 590.546 609.311C590.082 607.499 589.556 605.783 589.067 603.991Z"/><path fill="#D98538" d="M448.421 483.984L449.048 485.086C438.366 500.522 428.725 516.97 419.02 533.041C417.841 534.992 416.637 537.211 415.351 539.056C414.7 535.979 414.804 533.625 415.207 530.541C414.633 530.691 414.059 530.652 413.459 530.66C412.342 530.456 412.245 530.331 411.224 530.537C411.959 529.61 412.202 529.055 413.1 528.298C420.683 517.185 434.82 500.954 443.565 490.081C445.082 488.187 447.056 485.936 448.421 483.984Z"/><path fill="#D98538" d="M413.1 528.298C414.812 529.039 416.154 527.586 415.207 530.541C414.633 530.691 414.059 530.652 413.459 530.66C412.342 530.456 412.245 530.331 411.224 530.537C411.959 529.61 412.202 529.055 413.1 528.298Z"/><path fill="#ECA560" d="M548.126 263.993C559.123 270.919 570.912 276.901 582.141 283.408C585.471 285.338 594.175 289.942 597.057 292.114C598.498 292.846 601.164 294.181 602.412 295.133C600.874 297.222 602.051 300.539 602.885 302.784C600.874 301.548 598.167 299.8 596.399 298.286C594.779 297.59 585.344 291.109 583.34 289.785C571.019 281.639 559.022 272.974 546.723 264.771L547.615 263.961L548.126 263.993Z"/><path fill="#E39243" d="M597.057 292.114C598.498 292.846 601.164 294.181 602.412 295.133C600.874 297.222 602.051 300.539 602.885 302.784C600.874 301.548 598.167 299.8 596.399 298.286C596.913 298.399 598.848 299 599.264 298.705C598.651 295.246 598.982 294.708 597.057 292.114Z"/><path fill="#ECA560" d="M664.589 314.813C666.577 315.561 668.413 316.246 670.339 317.165L680.369 321.817C682.889 322.969 685.562 324.019 688.037 325.245C687.617 330.021 687.624 330.619 687.902 335.369C686.379 334.524 683.847 333.316 682.535 332.382C679.998 331.134 672.508 327.053 670.603 326.31C669.276 325.511 668.1 324.816 666.841 323.897C666.374 319.675 665.603 318.621 664.589 314.813Z"/><path fill="#D98538" d="M680.369 321.817C682.889 322.969 685.562 324.019 688.037 325.245C687.617 330.021 687.624 330.619 687.902 335.369C686.379 334.524 683.847 333.316 682.535 332.382C682.276 330.059 680.971 324.04 680.369 321.817Z"/><path fill="#D98538" d="M664.589 314.813C666.577 315.561 668.413 316.246 670.339 317.165C668.275 321.096 668.807 322.347 670.603 326.31C669.276 325.511 668.1 324.816 666.841 323.897C666.374 319.675 665.603 318.621 664.589 314.813Z"/><path fill="#ECA560" d="M581.724 292.593C582.324 293.033 582.513 293.202 583.066 293.713C585.341 295.358 587.582 297.05 589.788 298.787C590.787 299.382 592.901 300.673 593.644 301.538C595.117 302.498 597.211 303.963 598.497 305.146C600.033 308.792 604.088 317.219 603.393 320.961C600.895 318.742 597.059 315.2 594.672 312.847C593.661 311.975 591.58 310.392 590.88 309.431C589.166 307.947 586.96 305.989 585.372 304.393C584.468 303.64 583.586 302.859 582.73 302.052C582.222 297.79 581.483 296.865 581.724 292.593Z"/><path fill="#ECA560" d="M581.724 292.593C582.324 293.033 582.513 293.202 583.066 293.713C585.341 295.358 587.582 297.05 589.788 298.787L589.884 299.299C590.366 301.74 591.787 307.19 590.88 309.431C589.166 307.947 586.96 305.989 585.372 304.393C584.468 303.64 583.586 302.859 582.73 302.052C582.222 297.79 581.483 296.865 581.724 292.593Z"/><path fill="#CB7633" d="M581.724 292.593C582.324 293.033 582.513 293.202 583.066 293.713C582.57 295.202 584.734 302.625 585.372 304.393C584.468 303.64 583.586 302.859 582.73 302.052C582.222 297.79 581.483 296.865 581.724 292.593Z"/><path fill="#C56E2A" d="M589.788 298.787C590.787 299.382 592.901 300.673 593.644 301.538C593.284 305.701 593.894 308.812 594.672 312.847C593.661 311.975 591.58 310.392 590.88 309.431C591.787 307.19 590.366 301.74 589.884 299.299L589.788 298.787Z"/><path fill="#ECA560" d="M546.184 266.597C556.058 274.093 565.874 281.632 576.119 288.65C577.936 289.895 579.867 291.477 581.724 292.593C581.483 296.865 582.222 297.79 582.73 302.052C578.772 298.743 575.44 295.12 571.699 291.637C563.265 283.665 554.727 275.802 546.089 268.051C545.975 267.489 546.082 267.247 546.184 266.597Z"/><path fill="#CB7633" d="M688.037 325.245C689.463 325.849 690.881 326.471 692.29 327.111C693.603 327.677 699.08 329.933 700.029 330.621C700.355 333.637 702.057 338.517 702.676 342.012L702.851 342.959C701.183 342.231 698.016 340.872 696.664 339.82C693.607 338.444 690.862 336.831 687.902 335.369C687.624 330.619 687.617 330.021 688.037 325.245Z"/><path fill="#ECA560" d="M688.037 325.245C689.463 325.849 690.881 326.471 692.29 327.111C693.255 330.789 693.635 335.413 696.679 338.044C697.648 338.881 697.464 339.214 696.664 339.82C693.607 338.444 690.862 336.831 687.902 335.369C687.624 330.619 687.617 330.021 688.037 325.245Z"/><path fill="#ECA560" d="M618.016 304.095C619.41 304.831 621.239 305.748 622.535 306.592L624.256 307.439C627.179 308.891 630.602 310.919 633.476 312.521C633.955 315.226 634.596 321.234 634.496 323.862C631.325 321.836 627.573 319.395 624.559 317.183C623.533 316.631 622.533 316.034 621.561 315.393C621.125 315.081 620.738 314.836 620.406 314.417C621.086 312.685 618.611 306.201 618.016 304.095Z"/><path fill="#D98538" d="M618.016 304.095C619.41 304.831 621.239 305.748 622.535 306.592C622.061 310.527 623.702 313.505 624.559 317.183C623.533 316.631 622.533 316.034 621.561 315.393C621.125 315.081 620.738 314.836 620.406 314.417C621.086 312.685 618.611 306.201 618.016 304.095Z"/><path fill="#ECA560" d="M602.412 295.133C605.77 296.873 614.865 302.111 618.016 304.095C618.611 306.201 621.086 312.685 620.406 314.417C616.652 312.186 606.388 305.398 602.885 302.784C602.051 300.539 600.874 297.222 602.412 295.133Z"/><path fill="#ECA560" d="M656.041 325.683C658.382 326.982 660.619 328.596 663.003 329.983C664.298 330.603 666.989 332.207 668.115 333.08C667.972 333.441 667.903 333.868 667.822 334.25C666.723 337.507 664.567 340.051 664.047 343.335C663.195 342.901 662.601 342.555 661.937 341.854C659.997 340.717 656.979 338.844 655.112 337.587C655.185 335.763 655.41 334.244 655.488 332.495C655.919 329.676 655.868 328.419 656.041 325.683Z"/><path fill="#D98538" d="M663.003 329.983C664.298 330.603 666.989 332.207 668.115 333.08C667.972 333.441 667.903 333.868 667.822 334.25C666.723 337.507 664.567 340.051 664.047 343.335C663.195 342.901 662.601 342.555 661.937 341.854C663.142 339.138 662.95 333.091 663.003 329.983Z"/><path fill="#D98538" d="M645.548 319.085C646.836 319.789 648.49 320.662 649.601 321.601C650.678 322.212 651.387 322.661 652.406 323.37C653.675 324.039 654.915 324.792 656.041 325.683C655.868 328.419 655.919 329.676 655.488 332.495C655.41 334.244 655.185 335.763 655.112 337.587C653.888 336.803 652.583 336.096 651.408 335.306C650.359 334.559 649.293 333.835 648.211 333.135C647.298 332.545 645.062 331.236 644.362 330.534C645.269 328.626 645.427 321.591 645.548 319.085Z"/><path fill="#D98538" d="M645.548 319.085C646.836 319.789 648.49 320.662 649.601 321.601C648.935 323.52 647.992 330.956 648.211 333.135C647.298 332.545 645.062 331.236 644.362 330.534C645.269 328.626 645.427 321.591 645.548 319.085Z"/><path fill="#ECA560" d="M649.601 321.601C650.678 322.212 651.387 322.661 652.406 323.37C652.173 327.429 651.922 329.967 651.894 334.177L651.408 335.306C650.359 334.559 649.293 333.835 648.211 333.135C647.992 330.956 648.935 323.52 649.601 321.601Z"/><path fill="#CB7633" d="M651.894 334.177C652.307 333.564 652.667 333.012 653.057 332.379L652.939 332.499C654.012 330.555 653.689 333.183 655.488 332.495C655.41 334.244 655.185 335.763 655.112 337.587C653.888 336.803 652.583 336.096 651.408 335.306L651.894 334.177Z"/><path fill="#ECA560" d="M633.476 312.521C634.715 313.097 636.09 313.818 637.225 314.588C640.001 316.075 642.7 317.737 645.548 319.085C645.427 321.591 645.269 328.626 644.362 330.534C642.505 329.34 640.817 328.156 639.009 326.907L638.306 326.429C637.059 325.68 635.572 324.825 634.496 323.862C634.596 321.234 633.955 315.226 633.476 312.521Z"/><path fill="#D98538" d="M633.476 312.521C634.715 313.097 636.09 313.818 637.225 314.588C636.926 318.362 637.187 322.807 638.306 326.429C637.059 325.68 635.572 324.825 634.496 323.862C634.596 321.234 633.955 315.226 633.476 312.521Z"/><path fill="#F1EFEE" d="M435.206 816.493C433.418 817.403 429.544 819.246 428.638 821.002C419.747 838.251 413.725 857.203 406.129 875.095C405.155 877.39 403.962 880.174 403.184 882.471L401.24 882.766C403.207 879.118 405.672 872.448 407.285 868.441L417.433 843.145C418.668 840.063 426.115 822.175 426.517 819.906C425.387 818.124 424.461 818.018 422.294 816.997C426.603 816.99 430.91 816.822 435.206 816.493Z"/><path fill="#ECA560" d="M656.471 311.151C659.19 312.419 661.876 313.436 664.589 314.813C665.603 318.621 666.374 319.675 666.841 323.897C663.775 322.265 658.313 319.267 655.297 318.037C655.53 316.343 655.982 312.655 656.471 311.151Z"/><path fill="#F1EFEE" d="M394.405 816.742L407.154 816.51C405.073 817.35 402.584 818.229 400.639 819.186C397.359 824.206 389.787 843.702 388.025 845.483C387.464 845.413 387.378 845.351 386.844 845.487C390.235 838.664 395.269 826.721 398.289 819.482L397.464 818.901C396.411 818.165 395.449 817.512 394.405 816.742Z"/><path fill="#F1EFEE" d="M381.846 850.647C382.009 851.895 382.028 852.066 382.464 853.259C378.3 860.58 372.089 877.026 368.154 885.556L366.776 885.412L375.047 866.504C377.254 861.505 379.528 855.394 381.846 850.647Z"/><path fill="#0F0C0D" d="M562.325 508.339C564.103 508.513 568.691 510.527 568.608 512.301L568.439 512.498C567.505 512.496 567.071 511.052 566.186 511.033L566.076 511.141C566.245 512.522 568.771 514.098 565.555 514.311C566.031 515.81 566.537 517.05 566.883 518.607L565.919 519.446C564.624 515.709 563.574 511.947 562.325 508.339Z"/><path fill="#583226" d="M562.325 508.339C564.718 510.607 564.227 511.256 565.555 514.311C566.031 515.81 566.537 517.05 566.883 518.607L565.919 519.446C564.624 515.709 563.574 511.947 562.325 508.339Z"/><path fill="#CB7633" d="M536.448 258.15C538.196 258.244 538.618 258.134 539.79 259.353C540.239 260.751 541.025 260.95 542.18 261.851L541.386 262.584C542.626 263.587 545.267 265.444 546.184 266.597C546.082 267.247 545.975 267.489 546.089 268.051C545.014 267.4 535.667 259.095 535.297 258.3L535.761 258.141C535.939 258.18 536.168 258.188 536.448 258.15Z"/><path fill="#39110B" d="M536.448 258.15C538.196 258.244 538.618 258.134 539.79 259.353C540.239 260.751 541.025 260.95 542.18 261.851L541.386 262.584C539.252 260.855 538.156 260.295 536.448 258.15Z"/><path fill="#583226" d="M545.333 262.237C544.608 260.935 544.448 261.315 543.392 260.321L543.487 260.122C544.357 259.896 553.549 264.621 554.751 265.392L554.51 266.039C553.325 265.288 549.345 263.668 548.126 263.993L547.615 263.961C546.735 263.327 546.139 262.964 545.333 262.237Z"/><path fill="#CB7633" d="M554.751 265.392C559.835 267.506 563.908 269.85 568.694 272.064L567.88 272.729C563.647 270.712 558.604 267.809 554.51 266.039L554.751 265.392Z"/><path fill="#9A4C30" d="M387.09 312.654C384.743 315.3 382.164 317.71 379.77 320.279L379.803 320.31L379.748 320.209C379.796 318.943 384.703 312.59 385.611 311.746L387.09 312.654Z"/><path fill="#583226" d="M504.702 131.779C505.972 130.575 512.083 124.249 513.584 124.692C513.807 125.207 510.15 128.206 509.406 128.642C507.707 129.639 506.379 132.027 504.886 133.529C504.815 132.934 504.742 132.379 504.702 131.779Z"/><path fill="#583226" d="M501.134 140.126C502.015 139.051 506.655 132.869 507.928 133.015C508.088 133.773 502.717 140.094 501.986 140.933L501.134 140.126Z"/><path fill="#9A4C30" d="M388.733 316.428C389.973 316.387 390.172 316.227 391.243 315.587L391.992 315.192C392.174 315.016 381.652 324.446 383.729 320.759L383.91 321.053L383.972 320.471C384.867 319.615 387.773 316.911 388.733 316.428Z"/><path fill="#CB7633" d="M539.79 259.353C541.484 260.165 542.991 261.041 544.654 261.887L545.333 262.237C546.139 262.964 546.735 263.327 547.615 263.961L546.723 264.771C545.234 263.902 544.349 263.314 542.943 262.36L542.18 261.851C541.025 260.95 540.239 260.751 539.79 259.353Z"/><path fill="#583226" d="M441.769 376.108C442.015 376.623 442.273 377.1 442.538 377.604C442.597 378.726 441.823 386.819 441.4 386.904C440.779 386.015 441.412 377.239 441.769 376.108Z"/><path fill="#863D29" d="M531.455 268.043C534.54 270.541 536.135 272.563 538.595 275.706L537.966 276.956C535.621 274.058 533.562 271.104 531.455 268.043Z"/><path fill="#9A4C30" d="M450.647 489.212C451 488.196 453.976 481.485 454.679 480.821L454.753 480.809C454.747 480.975 454.741 481.142 454.735 481.308C454.242 482.03 452.636 487.647 451.822 489.361L451.651 489.73L450.647 489.212Z"/><path fill="#CB7633" d="M442.31 368.079C442.577 369.124 442.368 370.193 443.348 370.275C443.167 372.728 442.93 375.175 442.538 377.604C442.273 377.1 442.015 376.623 441.769 376.108C442.012 373.421 441.998 370.672 442.31 368.079Z"/><path fill="#9E9998" d="M366.037 817.749C365.801 817.685 363.595 817.321 363.945 816.736C364.888 816.194 369.905 816.785 371.164 816.937C370.186 817.008 369.128 817.107 368.151 817.127L368.272 818.783L366.037 817.749Z"/><path fill="#F1EFEE" d="M366.037 817.749C367.11 817.226 367.032 817.18 368.151 817.127L368.272 818.783L366.037 817.749Z"/><path fill="#9A4C30" d="M397.739 312.774L398.689 313.644C393.302 317.771 391.301 317.45 397.739 312.774Z"/><path fill="#E39243" d="M682.766 365.207C683.368 366.95 682.748 368.581 682.367 370.397C681.861 369.474 681.809 369.422 681.17 368.545C681.737 367.647 681.824 367.366 682.208 366.37C682.269 365.987 682.593 365.518 682.766 365.207Z"/><path fill="#583226" d="M572.607 517.538C574.252 518.943 574.337 519.002 575.418 520.881L574.861 521.677C573.502 519.725 573.353 519.673 572.607 517.538Z"/><path fill="#583226" d="M569.938 520.058C567.785 516.503 568.287 514.886 570.506 519.209L569.938 520.058Z"/><path fill="#583226" d="M572.294 516.942C572.575 517.217 572.557 517.163 572.607 517.538C572.314 517.438 572.401 517.494 572.287 517.39C572.229 517.211 572.248 517.339 572.294 516.942Z"/></svg>