<?xml version="1.0" encoding="utf-8"?>
<svg xmlns="http://www.w3.org/2000/svg" viewBox="316 198 386 411" role="img" aria-hidden="true"><path fill="#D38843" d="M527.446 361.781L528.943 362.139C539.239 395.769 560.659 418.909 593.515 431.853C602.794 435.509 613.106 440.315 621.154 446.163L621.138 463.034C592.119 439.714 557.757 438.559 535.282 404.176C532.307 399.625 527.65 394.892 527.383 389.395C526.946 380.41 527.253 370.755 527.446 361.781Z"/><path fill="#D38843" d="M491.267 364.993C491.489 363.697 491.273 363.565 492.102 362.718C492.076 362.652 492.049 362.586 492.023 362.52L492.177 362.45C492.961 362.866 492.234 372.882 492.062 374.13L491.957 392.998C481.905 410.28 462.111 430.304 444.057 438.518C426.751 446.392 415.171 451.39 399.384 462.353L399.41 446.46C410.524 438.774 425.692 433.045 437.75 426.999C463.03 414.148 482.249 391.88 491.267 364.993Z"/><path fill="#D38843" d="M491.267 364.993C491.489 363.697 491.273 363.565 492.102 362.718C492.076 362.652 492.049 362.586 492.023 362.52L492.177 362.45C492.961 362.866 492.234 372.882 492.062 374.13C491.842 370.986 492.455 367.15 491.267 364.993Z"/><path fill="#D38843" d="M527.104 395.354C528.148 396.245 533.631 404.778 534.997 406.644C541.985 416.086 550.441 424.346 560.044 431.112C579.212 444.644 603.204 448.749 621.127 465.111C621.227 471.299 621.206 477.489 621.065 483.676C610.164 473.199 600.649 465.481 586.757 459.244C578.264 455.43 570.09 452.238 562.006 447.538C547.076 438.856 538.156 430.185 527.358 417.262C527.171 409.961 527.086 402.657 527.104 395.354Z"/><path fill="#D38843" d="M491.401 396.894C492.633 398.16 491.895 414.61 491.847 417.239C481.986 430.854 462.946 446.201 447.581 453.138C428.782 461.625 414.445 467.826 399.628 483.059C398.791 482.061 399.303 467.004 399.335 464.659C413.426 454.327 425.66 448.754 441.513 441.675C463.328 431.936 478.16 415.994 491.401 396.894Z"/><path fill="#D38843" d="M491.001 338.789C491.043 337.739 491.009 337.6 491.38 336.615L491.391 336.61L491.519 336.706L491.545 336.605L491.585 336.578C492.269 337.075 492.011 342.068 491.984 343.087C492.125 363.589 487.53 374.03 476.356 391.269C456.626 421.708 428.216 427.111 399.46 444L399.48 431.757C410.008 426.43 420.346 420.737 430.477 414.688C459.583 397.615 482.374 371.902 491.001 338.789Z"/><path fill="#D38843" d="M491.001 338.789C491.043 337.739 491.009 337.6 491.38 336.615L491.391 336.61L491.519 336.706L491.545 336.605L491.585 336.578C492.269 337.075 492.011 342.068 491.984 343.087C491.656 341.47 491.465 340.396 491.001 338.789Z"/><path fill="#D38843" d="M527.926 345.765C527.351 342.475 527.394 338.527 527.473 335.167L527.872 334.75C527.813 334.645 527.754 334.54 527.695 334.435L527.732 334.394C528.424 334.712 528.587 337.354 528.722 338.012C540.085 387.271 578.995 410.912 620.951 431.549L620.92 443.553C615.17 440.3 608.975 436.715 602.983 433.989C595.315 430.5 587.793 427.78 580.323 423.763C556.017 410.649 538.012 388.304 530.367 361.765C528.841 356.31 528.037 351.41 527.926 345.765Z"/><path fill="#D38843" d="M527.926 345.765C527.351 342.475 527.394 338.527 527.473 335.167L527.872 334.75C527.813 334.645 527.754 334.54 527.695 334.435L527.732 334.394C528.424 334.712 528.587 337.354 528.722 338.012C527.328 340.055 528.091 342.57 527.926 345.765Z"/><path fill="#D38843" d="M626.409 433.663C639.847 441.269 651.594 451.535 660.933 463.832C674.071 481.338 682.473 499.49 680.543 520.816C680.082 525.899 681.173 531.633 680.399 536.948L668.866 537.091C670.518 527.732 670.406 518.146 668.535 508.828C663.523 483.404 647.672 462.058 626.353 447.765L626.409 433.663Z"/><path fill="#D38843" d="M391.93 434.873C392.471 435.031 392.119 434.891 392.869 435.511C393.41 438.918 393.181 444.178 393.141 447.763C361.747 474.388 349.253 494.736 349.951 536.758L339.995 536.87L339.251 536.648C338.383 534.654 338.902 529.517 338.759 527.088C336.528 489.213 360.082 454.814 391.93 434.873Z"/><path fill="#D38843" d="M352.845 399.233C356.567 399.078 360.291 398.997 364.017 398.989C364.029 412.124 364.187 425.259 364.493 438.391C359.998 442.757 356.551 446.243 352.373 450.977L351.1 449.061C351.004 454.033 344.198 460.385 340.687 465.485C338.8 469.599 339.074 465.349 339.296 463.633C339.482 442.211 339.532 420.789 339.444 399.367C343.495 399.267 346.973 399.264 351.019 399.398L352.845 399.233Z"/><path fill="#D38843" d="M352.845 399.233C356.567 399.078 360.291 398.997 364.017 398.989C364.029 412.124 364.187 425.259 364.493 438.391C359.998 442.757 356.551 446.243 352.373 450.977L351.1 449.061C350.706 445.035 350.947 436.163 350.954 431.782L351.019 399.398L352.845 399.233Z"/><path fill="#D38843" d="M351.019 399.398L352.845 399.233C352.552 415.58 353.108 435.048 352.373 450.977L351.1 449.061C350.706 445.035 350.947 436.163 350.954 431.782L351.019 399.398Z"/><path fill="#D38843" d="M339.296 463.633C339.76 464.8 339.688 464.707 340.687 465.485C338.8 469.599 339.074 465.349 339.296 463.633Z"/><path fill="#D38843" d="M527.299 218.688C531.466 220.723 535.596 222.832 539.687 225.015C539.264 257.096 546.363 275.378 574.484 292.577L574.386 307.863C566.505 304.596 555.283 297.069 549.436 290.87C526.12 266.147 527.434 248.981 527.299 218.688Z"/><path fill="#D38843" d="M491.116 219.424L491.83 220.001C492.48 224.431 491.975 230.454 492.026 235.039C492.399 269.009 473.894 291.423 445.282 307.701L444.9 307.731C444.167 306.305 444.48 295.256 444.489 292.828C472.455 272.761 479.344 260.722 479.021 225.999L491.116 219.424Z"/><path fill="#D38843" d="M626.316 450.118C633.531 454.335 641.452 461.708 646.687 468.171C664.627 490.323 669.881 509.561 667.344 537.196L653.842 537.21C654.628 531.918 654.903 526.562 654.665 521.217C653.531 498.374 642.671 481.594 626.146 466.745C626.437 461.6 626.297 455.346 626.316 450.118Z"/><path fill="#D38843" d="M392.806 450.405C393.342 452.494 393.069 464.346 393.048 467.124C388.742 471.149 384.8 475.547 381.27 480.267C369.226 496.552 362.652 516.447 365.724 536.712C361.425 536.509 356.441 536.668 352.088 536.704C350.771 534.739 351.61 523.412 351.89 520.69C355.207 488.466 369.003 470.308 392.806 450.405Z"/><path fill="#D38843" d="M659.192 545.376C663.513 545.263 668.299 545.474 672.654 545.574C672.575 545.732 672.497 545.889 672.418 546.047L672.012 546.828C668.715 553.244 662.618 560.172 657.383 565.223C646.167 576.043 627.967 585.601 612.423 587.659C609.04 588.106 601.406 587.85 597.75 587.785L584.717 587.696L584.672 577.227C614.684 579.35 640.778 569.81 659.192 545.376Z"/><path fill="#D38843" d="M347.846 545.141L361.61 545.14C380.633 569.73 404.706 580.306 435.823 577.943L435.866 587.938C424.868 588.044 408.849 588.963 398.713 586.059C377.018 579.673 358.732 564.963 347.846 545.141Z"/><path fill="#D38843" d="M379.172 328.617C395.476 327.408 403.252 330.677 414.947 341.854L409.576 348.974C390.06 326.708 359.053 336.983 355.537 365.243C355.657 376.724 359.846 384.125 368.393 391.409L353.879 391.499C337.051 366.519 348.623 334.707 379.172 328.617Z"/><path fill="#D38843" d="M627.387 328.651C640.12 326.954 652.546 331.637 659.887 342.371C665.273 350.26 667.304 359.966 665.533 369.353C663.545 379.368 657.654 386.417 649.356 391.949C646.52 392.09 628.425 392.729 626.619 392.087C625.835 390.98 626.106 389.909 626.181 388.487C627.334 387.653 635.093 388.54 637.703 387.956C640.631 387.3 641.271 387.066 644.035 385.933C647.772 383.654 649.806 382.337 652.599 378.747C656.784 373.364 658.641 366.531 657.757 359.77C656.776 352.844 653.101 346.585 647.532 342.354C641.977 338.136 634.966 336.314 628.06 337.292C619.84 338.491 614.642 342.678 610 349.134L604.565 341.195C611.189 334.142 617.873 330.414 627.387 328.651Z"/><path fill="#D38843" d="M627.39 318.187C646.321 316.522 660.116 322.315 666.169 340.838C669.374 350.642 674.903 361.258 675.364 371.795C675.616 377.546 669.468 387.999 665.571 392.002L652.498 391.976C660.087 386.163 664.26 380.458 667.015 371.337C675.715 334.238 630.032 310.014 603.609 340.13C601.778 337.786 599.925 335.459 598.05 333.15C606.699 324.153 614.874 319.567 627.39 318.187Z"/><path fill="#D38843" d="M382.812 347.091C393.04 346.585 399.766 350.249 403.558 359.859C401.605 365.018 398.975 371.781 396.478 376.606C379.646 387.089 368.372 364.399 380.066 357.12C382.665 355.5 385.821 355.03 388.779 355.823C395.647 357.66 397.717 366.081 390.675 369.185C390.066 369.453 388.889 369.732 389.074 370.579C392.101 372.471 399.261 366.456 395.267 358.578C384.925 346.852 369.273 358.49 374.459 371.501C376.061 375.463 379.238 378.58 383.229 380.105C388.209 382.026 391.706 381.018 396.24 379.085C395.757 381.107 395.478 385.327 393.027 385.924C387.872 387.18 381.618 386.346 376.991 383.75C372.128 380.995 368.58 376.397 367.147 370.995C364.135 359.285 371.57 349.841 382.812 347.091Z"/><path fill="#D38843" d="M487.659 516.618C490.014 516.485 489.737 516.141 491.505 517.083C492.638 519.507 492.139 523.145 492.078 526.068C466.003 530.083 451.261 553.535 463.206 578.552C464.522 581.308 467.601 584.097 469.301 587.228L468.914 587.827L466.625 587.964L457.665 587.945C453.806 582.335 451.586 577.415 450.205 570.66C447.882 558.882 450.36 546.664 457.087 536.722C464.428 525.637 474.783 519.215 487.659 516.618Z"/><path fill="#D38843" d="M527.309 516.068C549.929 518.679 568.331 531.102 571.794 555.252C573.192 565.006 570.683 579.023 564.735 587.039C563.842 588.243 562.492 587.977 561.125 588.021L551.352 587.961C557.753 581.937 561.889 573.896 563.066 565.186C564.215 556.39 561.323 547.228 555.882 540.326C548.227 530.614 539.017 527.403 527.264 525.896L527.309 516.068Z"/><path fill="#D38843" d="M626.2 469.187C646.612 487.681 656.176 509.436 651.985 537.179L638.953 537.074C639.058 536.447 639.146 535.819 639.217 535.188C641.353 517.248 637.546 502.781 626.358 488.504L626.2 469.187Z"/><path fill="#D38843" d="M392.476 469.949C393.514 471.307 393.106 486.673 393.096 489.596C381.828 504.938 378.81 517.942 380.13 536.549L367.618 536.568C366.425 534.975 366.432 529.848 366.469 527.815C366.88 504.903 376.404 485.774 392.476 469.949Z"/><path fill="#D38843" d="M364.106 545.093C368.849 545.368 373.745 545.176 378.507 545.076C396.223 561.416 412.179 565.785 435.752 565.485L435.733 576.534C410.147 579.276 378.207 567.393 364.106 545.093Z"/><path fill="#D38843" d="M541.512 225.986C545.867 228.101 549.963 230.443 554.181 232.807C554.078 236.922 554.436 241.034 555.246 245.07C557.744 257.43 564.073 266.642 574.485 273.572L574.492 290.428C569.816 288.521 562.152 282.243 558.694 278.486C543.855 262.365 540.95 246.968 541.512 225.986Z"/><path fill="#D38843" d="M476.757 226.998C478.162 230.102 477.152 242.991 476.429 246.622C471.993 268.884 462.067 278.246 445.032 290.508C444.076 289.592 444.32 276.36 444.306 274.178C458.554 265.113 464.929 249.688 464.598 233.24C468.442 231.132 472.82 229.011 476.757 226.998Z"/><path fill="#D38843" d="M641.603 545.376C646.555 545.517 652.049 545.426 657.041 545.437C656.342 546.333 655.629 547.218 654.902 548.091C640.91 564.853 621.279 573.848 599.75 575.709C595.821 576.278 588.779 575.976 584.684 575.802C584.472 572.64 584.571 568.138 584.548 564.873C587.287 564.952 590.029 564.985 592.77 564.972C611.574 564.771 628.335 558.818 641.603 545.376Z"/><path fill="#D38843" d="M527.377 302.774L533.74 304.887C531.299 338.037 542.487 360.931 573.074 375.339L572.983 386.694C570.632 386.72 565.307 383.661 562.998 382.644C531.061 368.58 527.337 333.296 527.377 302.774Z"/><path fill="#D38843" d="M484.903 305.077L485.617 305.77C487.048 314.361 485.331 329.291 481.923 337.44C474.024 356.324 463.917 365.906 445.721 373.999C444.742 371.847 445.267 365.902 445.368 363.294C467.354 351.371 477.057 333.104 474.85 308.31C478.073 307.089 481.589 306.087 484.903 305.077Z"/><path fill="#D38843" d="M527.159 527.368C536.972 528.593 545.964 531.589 552.744 539.081C566.652 554.452 563.428 574.47 548.817 587.835L537.547 587.934C534.688 587.993 529.873 588.296 527.312 587.444L527.06 586.823C528.652 585.358 535.278 585.626 541.582 580.918C547.063 576.831 550.633 570.678 551.461 563.891C553.23 548.672 541.305 538.837 527.113 537.435L527.159 527.368Z"/><path fill="#D38843" d="M535.746 305.311C539.19 306.42 542.614 307.589 546.016 308.82C545.712 331.645 551.531 350.453 572.975 361.602C573.028 365.432 573.191 369.683 572.831 373.457C544.913 360.316 532.13 335.615 535.746 305.311Z"/><path fill="#D38843" d="M469.964 460.532C470.646 461.391 470.822 463.345 470.854 464.5C471.583 490.101 462.107 511.098 445.728 529.67L445.39 529.766L444.87 529.289L444.88 510.253C454.721 494.21 458.216 486.039 459.562 467.208C463.316 465.064 466.406 462.954 469.964 460.532Z"/><path fill="#D38843" d="M491.357 303.643L491.767 303.904C492.374 305.675 492.102 309.92 492.137 312.02C492.401 327.848 489.867 340.761 483.777 355.274C476.159 373.43 462.898 380.497 445.216 387.339L445.242 375.631C448.986 374.244 452.276 372.789 455.745 370.796C474.025 360.24 485.925 341.35 487.553 320.304C487.884 316.412 487.125 306.435 487.442 305.262C489.049 303.718 488.779 304.183 491.357 303.643Z"/><path fill="#D38843" d="M338.787 545.2L345.932 545.2C357.538 565.516 373.886 580.115 396.578 587.045C401.207 587.827 391.774 587.959 391.947 587.964L368.886 587.931C353.891 578.44 348.987 572.364 338.783 558.633L338.787 545.2Z"/><path fill="#D38843" d="M396.578 587.045C401.207 587.827 391.774 587.959 391.947 587.964C393.654 587.636 394.861 587.5 396.578 587.045Z"/><path fill="#D38843" d="M630.309 347.091C651.476 347.269 654.029 372.857 635.045 378.261C621.497 379.364 620.421 370.618 616.557 359.629C619.323 352.386 622.475 348.935 630.309 347.091Z"/><path d="M629.157 354.193C633.638 352.424 638.707 354.593 640.52 359.056C642.334 363.518 640.216 368.609 635.772 370.468C632.858 371.687 629.513 371.247 627.012 369.315C624.512 367.384 623.241 364.258 623.685 361.13C624.129 358.002 626.218 355.353 629.157 354.193Z"/><path fill="#D38843" d="M630.335 355.654C632.831 354.926 635.526 355.619 637.361 357.461C639.195 359.304 639.877 362.001 639.138 364.494C638.399 366.987 636.358 368.877 633.815 369.422C630.077 370.224 626.375 367.923 625.438 364.216C624.501 360.509 626.665 356.726 630.335 355.654Z"/><path fill="#D38843" d="M381.465 338.617C393.801 337.164 400.876 342.011 408.706 350.612L404.783 357.455C400.979 350.928 395.828 346.413 388.078 345.45C382.286 344.785 376.479 346.566 372.055 350.364C367.674 354.077 365.069 359.47 364.884 365.21C364.611 372.079 367.211 376.977 371.637 381.886C376.499 385.878 381.109 388.357 387.607 387.764C389.199 387.618 393.144 387.415 394.084 388.883L393.767 390.122C390.382 392.935 375.682 391.461 371.022 391.393C348.657 376.421 354.768 344.373 381.465 338.617Z"/><path fill="#D38843" d="M538.444 451.503C541.744 454.08 545.129 456.547 548.593 458.899C547.873 487.526 552.125 497.205 565.766 520.703L565.152 520.729C559.519 515.332 551.809 511.671 544.609 508.94C537.75 490.352 534.096 471.163 538.444 451.503Z"/><path fill="#D38843" d="M482.45 450.946C482.999 451.457 483.202 451.958 483.353 452.732C486.293 467.868 482.853 496.709 475.123 509.572C467.351 512.985 461.49 515.983 455.323 521.863C455.028 522.095 455.234 521.976 454.633 522.048C456.673 518.11 459.632 514.319 462.019 509.764C470.322 494.244 473.824 476.606 472.081 459.091C475.5 456.531 479.071 453.605 482.45 450.946Z"/><path fill="#D38843" d="M490.57 527.606C491.406 527.575 490.959 527.492 491.865 528.035C492.393 530.481 492.161 534.154 492.12 536.755C483.796 539.237 478.15 542.057 473.408 549.765C466.329 561.271 471.805 578.376 484.23 583.63C487.733 585.111 490.544 585.781 493.876 587.755C490.926 588.033 488.084 588.006 485.125 588.035C481.196 588.021 477.267 587.946 473.341 587.809C449.894 568.089 460.593 534.315 490.57 527.606Z"/><path fill="#D38843" d="M674.823 545.465L680.462 545.026L680.515 559.449C672.821 570.372 662.222 582.028 649.826 587.653C647.268 588.178 622.501 588.259 621.672 587.65L621.664 587.444C621.956 587.093 622.187 587.152 622.669 587.105C644.482 579.893 664.132 566.279 674.823 545.465Z"/><path fill="#D38843" d="M649.826 587.653C647.268 588.178 622.501 588.259 621.672 587.65L621.664 587.444C621.956 587.093 622.187 587.152 622.669 587.105C627.988 588.274 643.119 587.063 649.826 587.653Z"/><path fill="#D38843" d="M550.047 460.118C552.575 461.206 559.109 465.433 561.712 467.044C562.424 480.762 565.362 494.235 573.415 505.585C573.514 513.095 573.528 520.606 573.457 528.117C569.977 524.699 567.451 520.057 564.769 516.005C553.179 498.492 549.849 480.805 550.047 460.118Z"/><path fill="#D38843" d="M628.913 338.631C634.851 338.165 640.773 339.725 645.71 343.058C663.31 354.893 657.897 382.847 636.75 386.49C632.275 387.261 629.704 386.782 625.305 386.019C624.655 383.083 623.961 380.23 623.23 377.313C627.846 380.221 629.629 380.369 635.153 379.986C641.145 378.376 645.541 375.686 648.197 369.808C650.048 365.673 650.164 360.969 648.519 356.748C642.733 341.59 622.319 341.527 615.454 358.009C614.03 355.437 612.473 352.886 611.052 350.309C615.937 343.182 620.305 340.317 628.913 338.631Z"/><path fill="#D38843" d="M488.264 508.162C490.336 507.988 489.797 507.756 491.498 508.518C492.38 510.177 491.983 512.888 491.893 514.89C483.408 515.28 476.355 517.714 469.233 522.403C458.454 529.424 450.978 540.512 448.512 553.137C446.023 565.441 448.99 577.435 455.881 587.776C454.069 588.034 448.954 587.956 446.859 587.967C441.709 575.731 445.199 564.825 444.185 552.055C442.24 527.551 466.444 511.172 488.264 508.162Z"/><path fill="#D38843" d="M668.055 398.995C671.833 398.962 675.452 399.06 679.23 399.174L679.4 465.983C676.352 461.004 671.894 455.588 668.233 450.963C667.94 445.795 668.191 438.666 668.177 433.286L668.055 398.995Z"/><path fill="#D38843" d="M381.32 317.701C382.626 317.607 383.935 317.56 385.245 317.56C399.833 317.672 411.97 323.018 422.036 333.448L415.948 340.664C409.179 333.521 403.934 330.073 394.424 327.67C391.024 326.939 387.554 326.585 384.077 326.615C371.663 326.836 362.037 332.045 353.607 340.776C355.833 334.542 359.823 327.716 363.109 321.886C368.833 319.195 375.106 318.391 381.32 317.701Z"/><path fill="#D38843" d="M626.765 307.16C635.041 306.703 640.603 307.064 648.65 309.151C652.153 313.671 655.134 318.572 657.536 323.762C643.803 314.723 631.468 314.437 616.109 318.912C607.64 322.225 603.008 325.815 596.44 331.887L589.694 325.598C600.62 314.402 611.204 309.324 626.765 307.16Z"/><path fill="#D38843" d="M378.802 306.694C379.772 306.602 380.743 306.524 381.715 306.46C401.206 305.199 416.013 313.114 430.232 325.583C427.566 327.847 425.782 329.647 423.339 332.161C421.805 330.629 419.913 329.047 418.265 327.602C415.482 325.39 412.482 323.464 409.312 321.854C394.155 314.182 379.909 314.594 364.174 319.752C366.664 315.762 369.129 311.756 371.569 307.736C373.933 307.219 376.393 306.985 378.802 306.694Z"/><path fill="#D38843" d="M586.574 270.091C612.596 271.839 621.725 273.201 638.183 294.969L626.725 295.12C610.877 284.685 605.634 283.157 586.556 282.483L586.574 270.091Z"/><path fill="#D38843" d="M619.519 545.147C625.535 544.835 633.067 545.229 639.303 545.196C630.027 555 616.746 560.415 603.576 562.359C596.387 563.442 591.689 563.626 584.513 562.985L584.506 551.027C600.171 552.432 605.01 549.925 619.519 545.147Z"/><path fill="#D38843" d="M530.752 425.683L531.283 424.539C540.458 434.518 549.079 442.019 560.871 448.814C578.956 459.235 597.804 463.437 613.291 478.591C615.909 481.152 618.804 483.397 620.674 486.675L620.475 487.447C618.379 487.48 615.738 486.093 613.902 485.04C583.009 467.318 552.152 455.388 530.752 425.683Z"/><path fill="#D38843" d="M472.626 309.024L473.349 309.986C475.978 331.157 465.04 350.223 446.688 360.447C446.13 360.568 446.478 360.556 445.674 360.192C445.152 357.13 445.363 351.851 445.391 348.553C457.892 338.379 462.164 330.165 462.174 313.968C464.983 312.4 469.597 310.429 472.626 309.024Z"/><path fill="#D38843" d="M527.192 442.294C528.256 442.942 535.454 449.202 536.845 450.363C533.682 473.448 534.717 484.362 542.029 506.757L541.925 507.503C540.004 508.351 531.788 506.477 529.161 505.983C529.099 505.795 529.037 505.607 528.975 505.419L528.687 504.473C525.999 495.88 527.211 454.406 527.192 442.294Z"/><path fill="#D38843" d="M381.467 545.096C388.235 545.741 394.614 545.012 401.256 545.455L402.246 545.527C405.611 545.754 408.638 548.052 411.995 549.189C419.935 551.88 427.349 552.415 435.598 552.143L435.591 563.858C416.588 565.462 395.328 558.183 381.467 545.096Z"/><path fill="#D38843" d="M628.883 296.706C633.172 296.563 635.589 296.534 639.83 296.927C642.781 300.532 645.13 303.377 647.715 307.287C629.32 303.153 614.612 305.524 598.587 315.63C593.869 318.942 591.78 320.915 587.995 325.235C586.497 320.63 586.587 317.543 586.546 312.748C599.175 303.228 613.05 297.869 628.883 296.706Z"/><path fill="#D38843" d="M484.673 428.478L485.71 429.203L484.623 430.53C478.144 438.391 472.046 443.958 464.752 450.269C456.916 457.05 405.882 486.626 399.524 487.24L399.062 486.705C402.206 479.795 422.324 466.824 429.263 463.393C438.86 458.648 448.741 454.868 458.088 449.295C467.782 443.49 476.712 436.497 484.673 428.478Z"/><path fill="#D38843" d="M653.713 399.011C657.813 398.959 661.914 398.946 666.014 398.974C666.177 414.97 666.475 432.479 666.239 448.353C663.523 446.225 657.077 439.706 653.97 436.926C653.779 424.289 653.693 411.65 653.713 399.011Z"/><path fill="#D38843" d="M381.575 295.548C404.986 298.481 412.29 298.974 433.006 312.527C432.951 316.943 432.758 320.527 432.397 324.931C430.696 323.649 428.673 321.769 427.031 320.333C410.98 307.133 393.469 302.597 373.138 305.941C376 302.103 378.447 299.167 381.575 295.548Z"/><path fill="#D38843" d="M527.104 539.353C536.048 539.767 543.802 543.725 547.839 552.076C550.364 557.302 550.632 563.335 548.583 568.765C546.451 574.519 541.392 579.997 535.752 582.509L534.091 583.237C531.741 583.81 529.31 584.333 527.013 584.905C526.995 581.661 526.996 578.417 527.018 575.173C533.947 573.674 538.052 572.442 540.094 564.505C541.026 560.857 540.427 556.987 538.437 553.79C535.787 549.446 531.759 548.507 527.109 547.543C527.068 544.75 527.041 542.143 527.104 539.353Z"/><path fill="#D38843" d="M547.682 309.627C551.357 311.051 554.898 312.866 558.451 314.576C558.439 315.885 558.442 317.193 558.461 318.501C558.714 330.547 564.714 339.807 573.122 347.836C573.132 351.857 573.117 355.878 573.077 359.898C553.63 349.075 547.106 330.873 547.682 309.627Z"/><path fill="#D38843" d="M491.116 538.474C492.823 538.851 492.046 545.857 492.039 547.581C487.61 549.715 483.832 551.989 482.065 557.006C480.874 560.47 481.118 564.267 482.743 567.55C485.017 572.248 487.474 573.224 491.921 574.67C491.937 577.955 491.891 581.239 491.786 584.522C490.4 584.145 489.025 583.731 487.662 583.281C487.225 583.135 486.788 582.988 486.351 582.841L485.822 582.599C471.484 576.182 466.923 557.109 478.447 545.73C482.603 541.626 485.86 540.59 491.116 538.474Z"/><path fill="#D38843" d="M491.84 254.992C492.694 264.336 492.214 283.651 492.13 293.776C481.138 295.368 464.048 300.47 454.044 305.546L453.318 305.061C473.9 292.727 484.548 277.331 491.84 254.992Z"/><path fill="#D38843" d="M491.398 442.928C492.33 444.007 491.782 500.723 491.809 506.477C485.939 506.386 483.319 507.152 477.634 508.674C485.725 489.144 487.621 470.059 484.38 449.29L491.398 442.928Z"/><path fill="#D38843" d="M414.794 263.36C415.313 265.692 415.238 266.873 415.558 268.999C417.421 281.39 423.333 295.492 433.237 303.292C433.257 305.757 433.258 308.223 433.241 310.688C431.746 309.734 430.328 308.725 428.805 307.792C417.978 301.568 415.919 302.458 411.24 290.094C408.379 282.533 406.797 278.936 406.186 270.595C409.03 268.154 411.9 265.742 414.794 263.36Z"/><path fill="#D38843" d="M527.727 293.825C527.35 291.109 527.38 257.154 527.727 256.191C528.238 256.506 528.559 258.522 528.641 259.086C534.66 279.386 545.072 291.557 562.335 303.375L561.36 304.232C550.179 299.318 539.743 295.915 527.727 293.825Z"/><path fill="#D38843" d="M527.727 293.825C527.35 291.109 527.38 257.154 527.727 256.191C528.238 256.506 528.559 258.522 528.641 259.086C527.011 262.017 528.661 287.234 527.727 293.825Z"/><path fill="#D38843" d="M527.415 507.449C552.627 511.786 556.54 512.918 573.513 532.697C573.541 537.472 573.448 542.261 573.522 547.032L572.381 549.231C567.036 527.38 548.237 516.957 527.355 514.297C527.33 511.91 527.346 509.832 527.415 507.449Z"/><path fill="#D38843" d="M366.027 399.016L378.434 399.028C378.436 408.737 378.294 417.851 378.462 427.614C376.46 428.988 374.791 430.089 372.832 431.581C370.59 433.284 368.348 435.175 366.135 436.948C365.876 424.563 365.977 411.449 366.027 399.016Z"/><path fill="#D38843" d="M626.528 491.824C626.752 492.012 627.202 492.363 627.35 492.58C637.837 507.935 638.816 519.69 637.253 536.882C634.54 537.156 629.088 536.96 626.14 536.941C626.917 522.016 626.282 506.764 626.528 491.824Z"/><path fill="#D38843" d="M462.269 234.468C463.889 235.714 462.682 241.838 462.347 243.745C460.348 255.162 453.662 264.978 444.548 271.988C444.066 271.008 443.799 255.819 444.372 254.506C445.912 250.971 448.098 245.722 449.37 241.5C453.267 239.096 458.13 236.537 462.269 234.468Z"/><path fill="#D38843" d="M425.877 255.433C426.277 257.494 426.041 259.844 426.228 261.995C426.92 269.961 428.466 276.252 433.33 282.626C433.29 288.928 433.435 295.403 433.258 301.664C431.596 300.035 430.53 298.992 429.071 297.199C421.226 286.742 417.448 275.092 416.413 262.166C419.448 259.758 422.607 257.511 425.877 255.433Z"/><path fill="#D38843" d="M556.037 233.799C557.702 234.516 567.639 239.913 569.411 241.112C570.872 246.364 571.294 247.886 574.457 252.325C574.528 257.967 574.669 266.082 574.359 271.612C562.279 265.274 555.765 246.764 556.037 233.799Z"/><path fill="#D38843" d="M586.574 284.304C593.076 284.508 597.03 284.592 603.507 285.877C606.138 286.394 608.714 287.158 611.202 288.157C613.177 288.937 622.787 293.64 623.456 295.211L623.385 295.335C622.453 295.841 620.197 296.07 619.118 296.217C614.939 297.527 609.658 298.736 605.334 299.932C597.707 297.74 594.216 297.792 586.562 297.185C586.544 292.892 586.548 288.598 586.574 284.304Z"/><path fill="#D38843" d="M393.187 492.848C393.829 495.427 393.233 509.248 393.168 512.458C393.043 520.467 392.996 528.477 393.026 536.487L381.955 536.539C380.043 521.771 383.756 504.629 393.187 492.848Z"/><path fill="#D38843" d="M640.374 399.04C644.213 398.991 648.052 398.979 651.89 399.004C651.986 410.944 652.019 422.883 651.988 434.823C648.666 433.031 643.885 428.996 640.495 426.689C640.317 417.746 640.355 408.033 640.374 399.04Z"/><path fill="#D38843" d="M680.29 562.349C680.865 564.9 680.664 579.32 680.594 582.594C678.634 584.615 676.898 586.046 674.824 587.909C667.825 587.965 660.827 587.951 653.829 587.867C653.752 587.444 653.741 587.617 653.783 587.35C653.959 587.129 654.435 586.831 654.656 586.703C666.749 579.736 672.261 572.939 680.29 562.349Z"/><path fill="#D38843" d="M457.305 468.5C458.357 469.528 457.731 471.353 457.582 472.752C456.366 484.192 451.991 496.83 445.269 506.201C444.557 504.305 444.72 479.288 444.655 475.103C448.868 472.93 453.017 470.516 457.305 468.5Z"/><path fill="#D38843" d="M338.987 561.826C344.979 568.005 349.164 576.696 357.138 581.847C358.777 582.905 363.569 586.427 364.713 587.629C360.685 588.025 349.673 587.836 345.219 587.756C343.193 586.003 341.263 584.127 339.516 582.095L338.937 581.439C338.829 575.438 338.675 567.714 338.987 561.826Z"/><path fill="#D38843" d="M449.025 323.432C450.055 319.197 456.728 316.922 460.682 314.672C460.33 329.151 456.345 337.191 445.36 346.663C445.137 338.655 444.1 334.67 447.398 327.513C446.546 327.728 445.762 327.922 444.919 328.184C445.03 325.322 444.608 324.129 447.504 322.947L449.025 323.432Z"/><path fill="#D38843" d="M447.504 322.947L449.025 323.432C448.599 324.929 448.292 326.224 447.398 327.513C446.546 327.728 445.762 327.922 444.919 328.184C445.03 325.322 444.608 324.129 447.504 322.947Z"/><path fill="#D38843" d="M444.919 328.184C445.03 325.322 444.608 324.129 447.504 322.947C447.07 325.529 446.733 326.441 444.919 328.184Z"/><path fill="#D38843" d="M380.163 399.059C383.936 399.048 387.709 399.057 391.482 399.087C391.446 405.951 391.454 412.815 391.508 419.679L387.607 421.891C385.038 423.379 382.513 424.941 380.035 426.576C379.97 417.403 380.013 408.23 380.163 399.059Z"/><path fill="#D38843" d="M627.533 399.013C631.224 398.993 634.915 399.001 638.605 399.035L638.769 425.751C635.151 423.564 632.495 421.408 628.427 419.791L627.61 419.45C627.631 412.637 627.605 405.825 627.533 399.013Z"/><path fill="#D38843" d="M403.937 272.396C404.779 273.199 404.7 273.866 404.892 275.245C406.115 284.035 410.25 291.96 413.798 299.95L413.049 299.706C411.223 299.135 409.407 298.533 407.602 297.899C406.571 297.615 405.534 297.352 404.493 297.108C403.046 296.783 401.594 296.481 400.138 296.202C397.978 290.682 396.715 285.947 395.487 280.22C398.251 277.571 401.122 275.002 403.937 272.396Z"/><path fill="#D38843" d="M586.506 256.454C594.808 256.605 595.482 256.467 602.232 261.572C607.507 265.561 612.784 269.231 617.78 273.682C613.492 272.845 609.862 270.98 604.995 270.058C598.377 268.805 593.185 268.62 586.512 268.372L586.506 256.454Z"/><path fill="#D38843" d="M527.081 549.276C538.592 550.571 542.195 560.708 535.635 569.74C532.072 572.912 531.769 572.634 527.14 573.656C526.867 566.09 526.964 556.916 527.081 549.276Z"/><path fill="#D38843" d="M559.964 315.591C568.155 318.804 568.122 320.957 572.991 326.644C572.996 332.235 573.186 339.647 572.822 345.098C572.234 344.768 571.711 344.467 571.272 343.944C563.781 335.028 560.01 327.054 559.964 315.591Z"/><path fill="#D38843" d="M563.42 468.167C566.911 469.714 570.188 471.59 573.72 473.128C573.534 482.62 573.898 493.303 573.431 502.613C567.622 497.008 563.653 476.118 563.42 468.167Z"/><path fill="#D38843" d="M470.929 375.568C470.267 381.961 451.08 395.526 445.51 398.719C445.117 394.998 445.087 392.685 445.089 388.939C454.849 386.181 462.85 381.615 470.929 375.568Z"/><path fill="#D38843" d="M490.882 549.86C491.09 549.92 491.957 550.08 491.957 550.467C491.945 557.58 492.368 565.075 491.742 572.125C491.627 573.416 486.94 570.518 486.696 570.359C483.855 567.288 482.147 563.801 483.148 559.503C483.954 555.878 486.194 552.734 489.357 550.788L490.882 549.86Z"/><path fill="#D38843" d="M549.001 376.289C559.184 382.807 561.691 383.957 572.837 388.656C572.893 391.944 572.966 394.977 572.788 398.267C566.818 397.127 552.372 381.919 549.001 376.289Z"/><path fill="#D38843" d="M343.652 369.945L345.126 371.034C345.948 379.49 347.8 384.263 351.983 391.494C347.857 391.558 343.731 391.591 339.605 391.592C340.756 384.304 341.601 377.079 343.652 369.945Z"/><path fill="#D38843" d="M432.988 251.508C434.143 252.677 432.928 274.408 433.266 277.75C433.314 278.224 433.395 279.272 432.779 279.439C432.362 279.284 431.659 277.766 431.439 277.366C428.367 268.48 427.588 264.056 427.784 254.52C429.51 253.501 431.245 252.497 432.988 251.508Z"/><path fill="#D38843" d="M393.892 281.971C394.333 282.499 397.61 294.485 398.038 296.048C395.161 295.576 392.285 295.141 389.381 294.886C387.2 294.579 385.008 294.409 382.824 294.125C386.793 288.949 388.986 286.517 393.892 281.971Z"/><path fill="#D38843" d="M407.656 545.163C412.318 545.052 417.165 545.371 421.886 545.317C424.284 545.289 433.421 544.707 434.969 545.007L435.009 545.043L435.388 545.078C435.73 545.74 435.613 548.993 435.623 549.931C427.04 550.918 415.178 549.552 407.656 545.163Z"/><path fill="#D38843" d="M603.946 545.43C605.243 545.268 613.336 544.565 614.033 545.339C613.835 545.979 612.546 546.113 612.022 546.261C605.74 548.779 592.417 551.177 584.929 549.088C584.211 548.888 584.387 545.584 584.836 545.545C588.347 545.234 601.334 545.274 603.946 545.43Z"/><path fill="#D38843" d="M603.946 545.43C605.243 545.268 613.336 544.565 614.033 545.339C613.835 545.979 612.546 546.113 612.022 546.261C609.891 545.131 607.118 545.77 603.946 545.43Z"/><path fill="#D38843" d="M586.618 299.012C591.228 298.998 597.168 299.133 601.611 300.292L603.727 300.844C601.146 301.843 599.86 302.402 597.401 303.614L596.689 303.957C592.677 306.209 590.275 308.054 586.543 310.636C586.53 306.761 586.556 302.886 586.618 299.012Z"/><path fill="#D38843" d="M676.147 376.319C677.749 377.775 678.462 389.223 678.622 392.005L669.875 392.003C669.534 391.996 668.532 392.103 668.246 391.735C668.247 391.378 668.538 390.915 668.758 390.65C672.157 386.558 674.183 381.236 676.147 376.319Z"/><path fill="#D38843" d="M572.214 574.351C572.517 572.451 572.921 571.335 573.468 569.535C573.54 574.45 573.686 580.142 573.421 585.01C573.46 585.514 573.489 586.02 573.506 586.526C573.601 589.36 568.426 588.097 566.204 588.05C569.499 582.134 569.821 580.965 572.049 574.798L572.214 574.351Z"/><path fill="#D38843" d="M572.214 574.351C572.517 572.451 572.921 571.335 573.468 569.535C573.54 574.45 573.686 580.142 573.421 585.01C572.973 580.665 574.165 577.014 572.214 574.351Z"/><path fill="#D38843" d="M586.441 250.938C588.667 251.938 590.828 253.626 592.892 254.978C587.126 254.904 586.455 256.315 586.441 250.938Z"/><path fill="#D38843" d="M564.187 304.736C567.218 306.562 570.429 308.076 573.465 309.848C573.65 309.956 574.035 310.464 573.693 310.678C572.499 310.704 564.244 306.072 562.796 305.139L564.187 304.736Z"/><path fill="#D38843" d="M446.565 243.004C447.706 244.207 445.129 248.437 444.468 249.752C443.147 245.044 442.639 245.448 446.565 243.004Z"/><path fill="#D38843" d="M484.673 428.478C486.828 425.768 489.389 422.836 491.963 420.545C490.071 423.392 487.976 426.656 485.71 429.203L484.673 428.478Z"/><path fill="#D38843" d="M571.976 242.336C574.903 243.78 574.106 245.499 574.039 248.685C572.343 246.91 572.119 244.686 571.976 242.336Z"/><path fill="#D38843" d="M339.022 583.92C340.33 585.126 341.387 586.395 342.263 587.935C341.83 587.893 341.397 587.856 340.963 587.822C337.865 587.639 338.727 586.907 339.022 583.92Z"/><path fill="#D38843" d="M680.05 584.863C681.419 586.186 680.98 587.528 679.271 588.168L678.53 588.477C677.222 586.487 678.287 586.577 680.05 584.863Z"/><path fill="#D38843" d="M449.701 306.91C451.353 308.161 446.542 309.666 445.067 310.452C444.137 309.535 448.551 307.581 449.701 306.91Z"/><path fill="#D38843" d="M530.752 425.683C530.26 425.04 527.602 421.477 527.882 420.833L527.971 420.8C528.621 420.917 530.757 423.885 531.283 424.539L530.752 425.683Z"/><path fill="#D38843" d="M527.33 358.088C527.739 358.596 528.152 359.075 528.574 359.571C528.682 360.479 528.795 361.238 528.943 362.139L527.446 361.781C527.444 360.549 527.405 359.318 527.33 358.088Z"/><path fill="#D38843" d="M446.363 530.975C447.206 531.899 446.102 532.78 445.504 533.831L445.287 534.221C443.784 532.883 445.134 532.119 446.363 530.975Z"/><path fill="#D38843" d="M343.652 369.945C343.816 369.465 344.165 368.074 344.676 367.869C345.127 368.123 345.092 370.517 345.126 371.034L343.652 369.945Z"/><path fill="#D38843" d="M572.381 549.231L573.522 547.032C573.52 547.841 573.634 550.627 573.22 551.203C572.589 550.618 572.565 550.078 572.381 549.231Z"/><path fill="#D38843" d="M562.335 303.375C563.132 303.85 563.452 304.145 564.187 304.736L562.796 305.139C562.268 304.782 561.923 304.54 561.36 304.232L562.335 303.375Z"/><path fill="#D38843" d="M454.044 305.546C453.778 305.718 451.991 307.046 451.599 306.606C451.516 306.512 451.494 306.38 451.541 306.264C451.787 305.659 452.788 305.291 453.318 305.061L454.044 305.546Z"/><path fill="#D38843" d="M527.33 358.088C527.364 357.467 527.308 357.198 527.551 356.694L527.638 356.632C528.085 356.714 528.497 359.207 528.574 359.571C528.152 359.075 527.739 358.596 527.33 358.088Z"/><path fill="#D38843" d="M443.992 587.026C444.415 587.008 444.377 586.895 444.519 587.28C444.353 587.353 444.186 587.426 444.02 587.499C443.969 587.317 443.991 587.45 443.992 587.026Z"/></svg>

