<?xml version="1.0" encoding="utf-8"?>
<svg xmlns="http://www.w3.org/2000/svg" viewBox="106 652 802 132" role="img" aria-hidden="true"><path fill="#EFE9E0" d="M406.524 670.745C429.271 668.876 449.26 685.723 451.273 708.458C453.285 731.193 436.566 751.288 413.844 753.445C390.917 755.62 370.601 738.718 368.571 715.778C366.541 692.838 383.572 672.63 406.524 670.745Z"/><path d="M405.241 680.818C422.492 678.279 438.53 690.221 441.042 707.476C443.554 724.731 431.588 740.75 414.33 743.236C397.108 745.717 381.131 733.782 378.624 716.564C376.117 699.346 388.027 683.351 405.241 680.818Z"/><path fill="#EFE9E0" d="M235.562 670.649C258.251 669.156 277.909 686.214 279.629 708.887C281.349 731.559 264.488 751.387 241.834 753.333C218.857 755.307 198.685 738.154 196.941 715.158C195.197 692.163 212.551 672.164 235.562 670.649Z"/><path d="M234.21 680.807C251.427 678.477 267.28 690.525 269.646 707.737C272.012 724.949 259.997 740.827 242.79 743.228C225.532 745.636 209.597 733.579 207.225 716.316C204.852 699.054 216.943 683.144 234.21 680.807Z"/><path fill="#EFE9E0" d="M831.695 672.539L883.467 672.567L883.425 742.478L891.973 742.466L891.941 768.341L881.652 768.311L881.689 751.501L870.875 751.529L821.579 751.513L821.501 768.508L811.354 768.489L811.397 742.487C815.193 742.128 818.284 741.804 820.907 738.703C832.347 725.181 831.593 689.521 831.695 672.539Z"/><path d="M841.614 681.567L872.982 681.673L872.879 742.511L861.25 742.52L829.305 742.506C840.622 725.988 841.37 701.209 841.614 681.567Z"/><path fill="#EFE9E0" d="M676.339 672.522C687.889 672.478 699.4 672.369 710.992 672.521C724.743 672.702 739.454 678.626 738.137 695.023C737.566 702.117 734.02 706.418 728.819 710.831C741.245 716.982 745.392 727.085 739.557 740.008C729.667 753.404 714.639 751.566 699.827 751.551L676.207 751.501C675.614 726.177 676.281 698.018 676.339 672.522Z"/><path d="M686.617 715.712C691.866 715.657 696.956 715.837 702.591 715.698C713.763 715.422 733.141 715.772 731.208 732.05C730.91 734.552 729.048 736.688 727.296 738.463C721.222 742.266 717.088 742.521 710 742.54C702.191 742.561 694.361 742.674 686.547 742.636C686.502 734.111 686.344 724.172 686.617 715.712Z"/><path d="M686.709 681.505C691.353 681.5 696.104 681.502 700.75 681.503C711.575 681.505 729.129 680.341 727.478 696.255C727.142 699.492 725.809 701.07 723.379 703.066C713.395 708.643 698.149 706.982 686.617 707.039C686.599 698.528 686.629 690.016 686.709 681.505Z"/><path fill="#EFE9E0" d="M122.508 672.521C132.325 672.535 142.103 672.491 152.004 672.407C161.965 672.323 173.515 673.094 180.477 681.374C183.889 685.433 184.625 691.336 184.086 696.442C183.365 703.275 178.51 706.992 173.536 710.798C186.238 717.284 191.508 724.917 185.732 739.308C177.212 753.873 160.171 751.788 145.739 751.68L122.566 751.485L122.508 672.521Z"/><path d="M132.891 715.742C137.72 715.661 142.729 715.784 147.5 715.644C158.828 715.314 177.673 715.025 177.302 731.006C177.215 734.751 175.5 736.559 172.9 738.97C162.331 744.706 144.769 742.749 132.77 742.756C132.82 734.276 132.498 724.024 132.891 715.742Z"/><path d="M133.004 681.524C142.225 681.468 151.05 681.547 160.254 681.888C172.654 682.348 178.497 694.652 169.805 703.35C167.523 704.606 164.346 706.241 161.751 706.495C152.642 707.386 142.272 707.005 133.01 706.993C132.946 698.504 132.945 690.014 133.004 681.524Z"/><path fill="#EFE9E0" d="M465.376 672.567L473.906 672.512C483.204 690.843 497.909 711.087 507.344 729.905C510.587 725.09 515.278 716.251 518.413 710.799C525.726 698.192 532.97 685.544 540.146 672.858L548.841 672.907C549.079 698.875 548.72 725.513 548.708 751.558L539.041 751.533L539.123 710.75C539.168 704.696 539.139 698.643 539.036 692.59C530.161 708.005 519.549 727.379 510.077 742.144L504.328 741.975L475.031 692.789C475.848 711.27 475.36 732.787 475.363 751.471L465.023 751.453C464.87 725.157 464.988 698.86 465.376 672.567Z"/><path fill="#EFE9E0" d="M593.353 672.532L603.925 672.558C606.272 678.446 610.26 686.207 612.977 692.23C621.825 711.839 631.538 731.726 640.093 751.441L629.16 751.444C625.954 744.691 622.888 737.873 619.964 730.993L603.375 731.113C594.576 731.099 585.778 731.207 576.982 731.438C575.023 737.102 570.961 745.764 568.482 751.49L557.383 751.455C569.947 725.787 580.821 697.702 593.353 672.532Z"/><path d="M598.232 683.784C600.191 685.552 613.674 718.012 615.714 722.715C610.247 722.733 604.78 722.683 599.314 722.566L581.199 722.501C587.029 709.726 592.172 696.583 598.232 683.784Z"/><path fill="#EFE9E0" d="M302.012 672.562C319.376 672.462 336.741 672.501 354.104 672.68L354.061 751.552L343.799 751.54C343.991 728.195 343.975 704.848 343.751 681.502L333.875 681.492L312.014 681.485L312.016 682.822C312.011 697.686 311.873 735.863 300.619 746.388C295.377 751.289 289.637 751.456 283.032 751.428L283.005 741.883C283.529 741.911 284.052 741.934 284.576 741.953C294.147 742.282 297.518 736.469 299.199 727.629C302.6 709.748 301.953 690.738 302.012 672.562Z"/><path fill="#EFE9E0" d="M743.694 672.74L754.955 672.549L780.23 720.868C781.592 718.262 783.104 715.718 784.604 713.188C792.515 699.843 799.493 686.08 807.329 672.676L817.794 672.777C811.711 684.75 804.056 697.615 797.616 709.97C792.358 719.663 787.031 729.201 781.545 738.756C774.375 751.245 764.305 756.138 750.646 749.326L753.254 740.909C764.494 745.189 769.377 742.945 774.739 731.962C768.446 721.692 762.703 708.92 756.931 698.131C754.767 694.085 744.337 675.719 743.694 672.74Z"/></svg>
